<svg id="svg" version="1.1" xmlns="http://www.w3.org/2000/svg" xmlns:xlink="http://www.w3.org/1999/xlink" width="400" height="400" viewBox="0, 0, 400,400"><g id="svgg"><path id="path0" d="M269.200 132.221 C 268.870 132.291,266.710 132.648,264.400 133.013 C 235.234 137.621,217.515 149.968,210.684 170.444 C 209.422 174.227,208.305 180.755,208.473 183.365 L 208.600 185.330 209.894 182.165 C 215.031 169.604,226.906 157.386,240.570 150.604 C 246.656 147.584,246.997 148.410,241.378 152.561 C 229.192 161.564,213.808 182.785,211.844 193.298 L 211.565 194.795 215.737 192.587 C 218.738 190.999,222.969 189.369,230.796 186.787 C 253.855 179.179,258.264 174.772,263.598 154.000 C 265.437 146.837,268.724 138.968,271.759 134.460 C 272.552 133.283,273.200 132.248,273.200 132.160 C 273.200 131.979,270.115 132.026,269.200 132.221 M146.143 142.436 C 134.617 145.776,134.485 163.975,145.959 167.786 L 147.934 168.442 151.401 175.521 C 153.307 179.415,156.137 185.247,157.689 188.483 L 160.511 194.366 162.556 194.748 C 164.333 195.080,168.472 195.523,176.300 196.220 C 178.901 196.452,178.930 196.757,175.751 190.344 C 174.293 187.405,171.707 182.120,170.004 178.600 C 168.300 175.080,165.721 169.754,164.273 166.765 L 161.639 161.331 162.251 159.365 C 165.427 149.164,156.242 139.510,146.143 142.436 M175.700 156.100 C 178.859 159.165,180.137 161.728,182.367 169.467 C 186.696 184.498,193.405 192.836,202.944 195.044 L 204.087 195.309 203.901 186.154 C 203.593 171.004,199.590 164.359,187.000 158.100 C 183.760 156.489,175.073 153.600,173.470 153.600 C 173.280 153.600,174.283 154.725,175.700 156.100 M137.600 180.234 C 123.115 184.062,121.481 186.062,122.827 198.316 C 127.824 243.801,170.856 274.656,215.292 264.615 C 248.002 257.224,273.249 226.166,273.732 192.724 L 273.800 188.048 272.244 186.450 C 269.724 183.862,263.282 181.072,256.850 179.785 C 255.202 179.455,255.442 180.096,257.325 181.054 C 270.138 187.573,263.983 195.481,242.800 199.717 C 227.872 202.702,219.243 203.403,197.600 203.388 C 180.544 203.376,178.449 203.277,167.400 201.966 C 135.201 198.146,124.081 189.953,138.976 181.024 C 141.522 179.499,141.163 179.293,137.600 180.234 M261.596 207.900 C 261.588 209.170,258.801 216.510,256.624 220.993 C 248.989 236.721,237.039 248.477,223.291 253.786 C 217.739 255.931,216.185 255.551,220.145 253.018 C 230.835 246.180,242.734 232.790,248.541 221.066 C 250.846 216.411,250.903 216.519,246.491 217.143 C 236.955 218.490,232.551 218.848,222.800 219.070 C 208.103 219.404,191.825 218.370,193.074 217.182 C 193.253 217.011,196.730 216.675,200.800 216.434 C 227.892 214.832,251.020 211.479,258.433 208.078 C 260.673 207.051,261.601 206.998,261.596 207.900 " stroke="none" fill="#7d07fc" fill-rule="evenodd"></path><path id="path1" d="M197.200 80.800 C 196.768 81.399,196.165 81.600,194.800 81.600 C 193.435 81.600,192.832 81.801,192.400 82.400 C 192.083 82.840,191.503 83.200,191.112 83.200 C 190.667 83.200,190.400 82.900,190.400 82.400 C 190.400 81.867,190.133 81.600,189.600 81.600 C 189.067 81.600,188.800 81.867,188.800 82.400 C 188.800 82.933,188.533 83.200,188.000 83.200 C 187.560 83.200,187.200 83.020,187.200 82.800 C 187.200 82.580,186.840 82.400,186.400 82.400 C 185.960 82.400,185.600 82.580,185.600 82.800 C 185.600 83.020,184.880 83.200,184.000 83.200 C 183.120 83.200,182.400 83.380,182.400 83.600 C 182.400 83.820,182.080 84.000,181.688 84.000 C 181.297 84.000,180.717 84.360,180.400 84.800 C 180.083 85.240,179.503 85.600,179.112 85.600 C 178.588 85.600,178.400 85.916,178.400 86.800 C 178.400 87.733,178.222 88.000,177.600 88.000 C 177.160 88.000,176.800 87.820,176.800 87.600 C 176.800 87.380,176.080 87.200,175.200 87.200 C 174.320 87.200,173.600 87.380,173.600 87.600 C 173.600 87.820,173.218 88.000,172.750 88.000 C 172.019 88.000,171.934 88.168,172.140 89.200 C 172.370 90.349,171.918 90.838,171.400 90.000 C 171.264 89.780,170.443 89.600,169.576 89.600 C 168.709 89.600,168.000 89.780,168.000 90.000 C 168.000 90.220,167.640 90.400,167.200 90.400 C 166.760 90.400,166.400 90.580,166.400 90.800 C 166.400 91.020,166.080 91.200,165.688 91.200 C 165.297 91.200,164.717 91.560,164.400 92.000 C 164.083 92.440,163.503 92.800,163.112 92.800 C 162.588 92.800,162.400 93.116,162.400 94.000 C 162.400 94.933,162.222 95.200,161.600 95.200 C 161.160 95.200,160.800 95.020,160.800 94.800 C 160.800 94.580,160.080 94.400,159.200 94.400 C 158.320 94.400,157.600 94.580,157.600 94.800 C 157.600 95.020,157.240 95.200,156.800 95.200 C 156.360 95.200,156.000 95.380,156.000 95.600 C 156.000 95.820,156.180 96.000,156.400 96.000 C 156.620 96.000,156.800 96.360,156.800 96.800 C 156.800 97.333,156.533 97.600,156.000 97.600 C 155.560 97.600,155.200 97.420,155.200 97.200 C 155.200 96.980,155.020 96.800,154.800 96.800 C 154.580 96.800,154.400 97.160,154.400 97.600 C 154.400 98.215,154.133 98.400,153.247 98.400 C 152.438 98.400,152.032 98.634,151.889 99.183 C 151.776 99.615,150.948 100.285,150.042 100.677 C 149.139 101.069,148.400 101.526,148.400 101.694 C 148.400 101.862,148.122 102.000,147.783 102.000 C 147.444 102.000,146.780 102.360,146.308 102.800 C 145.836 103.240,145.213 103.600,144.925 103.600 C 144.636 103.600,144.400 103.780,144.400 104.000 C 144.400 104.220,144.122 104.400,143.783 104.400 C 143.444 104.400,142.780 104.760,142.308 105.200 C 141.836 105.640,141.213 106.000,140.925 106.000 C 140.636 106.000,140.400 106.180,140.400 106.400 C 140.400 106.620,140.164 106.800,139.875 106.800 C 139.587 106.800,139.002 107.115,138.575 107.500 C 138.149 107.885,137.305 108.455,136.700 108.768 C 136.095 109.080,135.600 109.485,135.600 109.668 C 135.600 109.850,135.352 110.000,135.048 110.000 C 134.745 110.000,133.755 110.720,132.848 111.600 C 131.941 112.480,131.047 113.200,130.861 113.200 C 130.675 113.200,129.387 114.280,128.000 115.600 C 126.613 116.920,125.315 118.000,125.116 118.000 C 124.629 118.000,117.200 125.563,117.200 126.059 C 117.200 126.275,116.300 127.329,115.200 128.400 C 114.100 129.471,113.200 130.558,113.200 130.814 C 113.200 131.070,112.660 131.783,112.000 132.400 C 111.340 133.017,110.800 133.692,110.800 133.901 C 110.800 134.110,110.260 134.846,109.600 135.537 C 108.940 136.228,108.400 137.025,108.400 137.308 C 108.400 137.591,108.040 138.083,107.600 138.400 C 107.160 138.717,106.800 139.297,106.800 139.688 C 106.800 140.080,106.620 140.400,106.400 140.400 C 106.180 140.400,106.000 140.636,106.000 140.925 C 106.000 141.213,105.640 141.836,105.200 142.308 C 104.760 142.780,104.400 143.444,104.400 143.783 C 104.400 144.122,104.220 144.400,104.000 144.400 C 103.780 144.400,103.600 144.760,103.600 145.200 C 103.600 145.640,103.445 146.000,103.257 146.000 C 102.802 146.000,98.794 154.000,98.797 154.900 C 98.799 155.285,98.620 155.600,98.400 155.600 C 98.180 155.600,98.000 155.960,98.000 156.400 C 98.000 156.840,97.820 157.200,97.600 157.200 C 97.380 157.200,97.200 157.737,97.200 158.392 C 97.200 159.331,96.987 159.638,96.200 159.836 C 95.650 159.974,95.200 160.350,95.200 160.672 C 95.200 161.373,94.243 162.400,93.589 162.400 C 93.332 162.400,92.617 162.940,92.000 163.600 C 91.383 164.260,90.591 164.800,90.240 164.800 C 89.796 164.800,89.600 165.167,89.600 166.000 C 89.600 167.248,88.277 167.789,87.888 166.700 C 87.784 166.409,87.561 166.348,87.355 166.555 C 87.148 166.761,87.209 166.984,87.500 167.088 C 88.587 167.476,87.587 169.600,86.317 169.600 C 86.020 169.600,85.517 169.960,85.200 170.400 C 84.861 170.870,84.165 171.200,83.512 171.200 C 82.900 171.200,82.400 171.380,82.400 171.600 C 82.400 171.820,82.760 172.000,83.200 172.000 C 83.733 172.000,84.000 172.267,84.000 172.800 C 84.000 173.261,83.733 173.600,83.371 173.600 C 82.600 173.600,81.600 174.551,81.600 175.283 C 81.600 175.580,81.240 176.083,80.800 176.400 C 80.360 176.717,80.000 177.257,80.000 177.600 C 80.000 177.943,79.640 178.483,79.200 178.800 C 78.643 179.202,78.400 179.835,78.400 180.888 C 78.400 181.720,78.220 182.400,78.000 182.400 C 77.780 182.400,77.600 182.760,77.600 183.200 C 77.600 183.640,77.420 184.000,77.200 184.000 C 76.980 184.000,76.800 184.720,76.800 185.600 C 76.800 186.480,76.620 187.200,76.400 187.200 C 76.180 187.200,76.000 187.483,76.000 187.829 C 76.000 188.637,75.037 189.600,74.229 189.600 C 73.883 189.600,73.600 189.780,73.600 190.000 C 73.600 190.220,73.780 190.400,74.000 190.400 C 74.581 190.400,74.492 192.691,73.900 192.967 C 73.500 193.153,73.500 193.247,73.900 193.433 C 74.493 193.710,74.577 195.200,74.000 195.200 C 73.780 195.200,73.600 195.545,73.600 195.967 C 73.600 196.388,73.375 196.838,73.100 196.967 C 72.700 197.153,72.700 197.247,73.100 197.433 C 73.934 197.823,73.700 199.200,72.800 199.200 C 72.267 199.200,72.000 199.467,72.000 200.000 C 72.000 200.533,72.267 200.800,72.800 200.800 C 73.333 200.800,73.600 201.067,73.600 201.600 C 73.600 202.133,73.333 202.400,72.800 202.400 C 72.360 202.400,72.000 202.220,72.000 202.000 C 72.000 201.780,71.820 201.600,71.600 201.600 C 71.380 201.600,71.200 201.960,71.200 202.400 C 71.200 202.840,71.380 203.200,71.600 203.200 C 71.820 203.200,72.000 203.560,72.000 204.000 C 72.000 204.440,72.180 204.800,72.400 204.800 C 73.223 204.800,72.852 207.661,72.000 207.884 C 70.964 208.155,70.964 208.800,72.000 208.800 C 72.533 208.800,72.800 209.067,72.800 209.600 C 72.800 210.133,72.533 210.400,72.000 210.400 C 71.560 210.400,71.200 210.580,71.200 210.800 C 71.200 211.020,71.639 211.200,72.176 211.200 C 73.585 211.200,73.728 211.748,72.766 213.460 C 72.224 214.425,72.077 215.026,72.358 215.119 C 73.161 215.387,72.859 216.800,72.000 216.800 C 71.467 216.800,71.200 217.067,71.200 217.600 C 71.200 218.133,71.467 218.400,72.000 218.400 C 72.533 218.400,72.800 218.667,72.800 219.200 C 72.800 219.733,72.533 220.000,72.000 220.000 C 71.560 220.000,71.200 219.820,71.200 219.600 C 71.200 219.380,71.020 219.200,70.800 219.200 C 70.580 219.200,70.400 219.560,70.400 220.000 C 70.400 220.440,70.580 220.800,70.800 220.800 C 71.020 220.800,71.200 221.160,71.200 221.600 C 71.200 222.040,71.380 222.400,71.600 222.400 C 71.820 222.400,72.000 223.120,72.000 224.000 C 72.000 225.333,71.867 225.600,71.200 225.600 C 70.760 225.600,70.400 225.780,70.400 226.000 C 70.400 226.220,70.760 226.400,71.200 226.400 C 71.733 226.400,72.000 226.667,72.000 227.200 C 72.000 227.733,71.733 228.000,71.200 228.000 C 70.760 228.000,70.400 228.180,70.400 228.400 C 70.400 228.620,70.940 228.800,71.600 228.800 C 72.533 228.800,72.800 228.978,72.800 229.600 C 72.800 230.040,72.620 230.400,72.400 230.400 C 72.180 230.400,72.000 230.760,72.000 231.200 C 72.000 231.640,72.180 232.000,72.400 232.000 C 72.622 232.000,72.800 233.067,72.800 234.400 C 72.800 235.733,72.978 236.800,73.200 236.800 C 73.420 236.800,73.600 237.160,73.600 237.600 C 73.600 238.040,73.420 238.400,73.200 238.400 C 72.493 238.400,72.774 239.804,73.600 240.400 C 74.426 240.996,74.707 242.400,74.000 242.400 C 73.780 242.400,73.600 242.760,73.600 243.200 C 73.600 243.822,73.867 244.000,74.800 244.000 C 75.925 244.000,76.000 244.096,76.000 245.538 C 76.000 246.568,76.264 247.315,76.800 247.800 C 77.240 248.198,77.600 248.906,77.600 249.374 C 77.600 249.841,77.960 250.483,78.400 250.800 C 78.870 251.139,79.200 251.835,79.200 252.488 C 79.200 253.153,79.416 253.600,79.738 253.600 C 80.751 253.600,81.600 255.027,81.600 256.731 C 81.600 258.366,81.628 258.400,82.976 258.400 C 84.496 258.400,85.100 258.957,84.441 259.751 C 83.639 260.717,84.803 262.393,86.276 262.397 C 87.748 262.400,88.281 262.979,87.585 263.818 C 86.926 264.612,87.758 265.600,89.086 265.600 C 89.738 265.600,90.146 265.872,90.284 266.400 C 90.399 266.840,90.652 267.200,90.847 267.200 C 91.041 267.200,91.200 267.740,91.200 268.400 C 91.200 269.425,91.351 269.600,92.237 269.600 C 92.938 269.600,93.343 269.859,93.484 270.400 C 93.648 271.027,94.030 271.200,95.247 271.200 C 96.533 271.200,96.800 271.337,96.800 272.000 C 96.800 272.440,96.620 272.800,96.400 272.800 C 96.180 272.800,96.000 272.620,96.000 272.400 C 96.000 272.180,95.820 272.000,95.600 272.000 C 95.380 272.000,95.200 272.360,95.200 272.800 C 95.200 273.333,95.467 273.600,96.000 273.600 C 96.440 273.600,96.800 273.780,96.800 274.000 C 96.800 274.220,97.616 274.400,98.613 274.400 C 99.971 274.400,100.491 274.575,100.690 275.100 C 101.121 276.238,101.876 276.800,102.971 276.800 C 103.848 276.800,104.000 276.978,104.000 278.000 C 104.000 278.933,104.178 279.200,104.800 279.200 C 105.240 279.200,105.600 279.020,105.600 278.800 C 105.600 278.079,106.890 278.381,107.676 279.287 C 108.267 279.969,108.520 280.054,108.768 279.652 C 109.358 278.697,110.986 279.282,111.127 280.500 C 111.233 281.421,111.444 281.600,112.427 281.600 C 113.333 281.600,113.600 281.782,113.600 282.400 C 113.600 282.840,113.780 283.200,114.000 283.200 C 114.220 283.200,114.400 283.020,114.400 282.800 C 114.400 282.580,114.683 282.400,115.029 282.400 C 115.374 282.400,115.927 282.130,116.257 281.800 C 117.204 280.853,117.600 281.089,117.600 282.600 C 117.600 283.370,117.780 284.000,118.000 284.000 C 118.220 284.000,118.400 283.820,118.400 283.600 C 118.400 282.838,120.506 283.200,121.307 284.100 C 121.850 284.710,122.165 284.839,122.287 284.500 C 122.604 283.617,124.800 283.879,124.800 284.800 C 124.800 285.240,124.980 285.600,125.200 285.600 C 125.420 285.600,125.600 285.420,125.600 285.200 C 125.600 284.980,125.960 284.800,126.400 284.800 C 126.840 284.800,127.200 284.626,127.200 284.413 C 127.200 283.642,128.413 284.512,128.649 285.451 C 128.782 285.981,129.095 286.383,129.345 286.344 C 130.153 286.219,131.309 286.907,132.920 288.470 C 133.787 289.312,134.745 290.000,135.048 290.000 C 135.352 290.000,135.600 290.150,135.600 290.332 C 135.600 290.515,136.095 290.920,136.700 291.232 C 137.305 291.545,138.149 292.115,138.575 292.500 C 139.002 292.885,139.587 293.200,139.875 293.200 C 140.164 293.200,140.400 293.380,140.400 293.600 C 140.400 293.820,140.720 294.000,141.112 294.000 C 141.503 294.000,142.083 294.360,142.400 294.800 C 142.717 295.240,143.297 295.600,143.688 295.600 C 144.080 295.600,144.400 295.780,144.400 296.000 C 144.400 296.220,144.636 296.400,144.925 296.400 C 145.213 296.400,145.836 296.760,146.308 297.200 C 146.780 297.640,147.444 298.000,147.783 298.000 C 148.122 298.000,148.400 298.180,148.400 298.400 C 148.400 298.620,148.760 298.800,149.200 298.800 C 149.640 298.800,150.000 298.980,150.000 299.200 C 150.000 299.420,150.360 299.600,150.800 299.600 C 151.240 299.600,151.600 299.780,151.600 300.000 C 151.600 300.220,151.949 300.400,152.376 300.400 C 152.803 300.400,153.264 300.580,153.400 300.800 C 153.536 301.020,154.087 301.200,154.624 301.200 C 155.161 301.200,155.600 301.380,155.600 301.600 C 155.600 301.820,155.960 302.000,156.400 302.000 C 156.840 302.000,157.200 302.180,157.200 302.400 C 157.200 302.620,157.560 302.800,158.000 302.800 C 158.440 302.800,158.800 302.980,158.800 303.200 C 158.800 303.420,159.340 303.600,160.000 303.600 C 160.660 303.600,161.200 303.780,161.200 304.000 C 161.200 304.220,161.740 304.400,162.400 304.400 C 163.060 304.400,163.600 304.580,163.600 304.800 C 163.600 305.020,164.140 305.200,164.800 305.200 C 165.460 305.200,166.000 305.380,166.000 305.600 C 166.000 305.820,166.529 306.000,167.176 306.000 C 167.823 306.000,168.464 306.180,168.600 306.400 C 168.736 306.620,169.467 306.800,170.224 306.800 C 170.981 306.800,171.600 306.980,171.600 307.200 C 171.600 307.420,172.320 307.600,173.200 307.600 C 174.080 307.600,174.800 307.780,174.800 308.000 C 174.800 308.220,175.599 308.400,176.576 308.400 C 177.553 308.400,178.464 308.580,178.600 308.800 C 178.736 309.020,179.737 309.200,180.824 309.200 C 181.911 309.200,182.800 309.380,182.800 309.600 C 182.800 309.842,184.522 310.000,187.167 310.000 C 189.568 310.000,191.593 310.167,191.667 310.372 C 191.740 310.577,193.240 310.773,195.000 310.808 C 201.504 310.939,202.400 311.138,202.400 312.446 C 202.400 313.333,202.585 313.600,203.200 313.600 C 203.640 313.600,204.000 313.420,204.000 313.200 C 204.000 312.476,205.291 312.783,206.107 313.700 C 206.650 314.310,206.965 314.439,207.087 314.100 C 207.503 312.941,209.600 313.525,209.600 314.800 C 209.600 315.867,209.733 316.000,210.800 316.000 C 211.733 316.000,212.000 316.178,212.000 316.800 C 212.000 317.240,212.180 317.600,212.400 317.600 C 212.620 317.600,212.800 317.420,212.800 317.200 C 212.800 316.980,213.160 316.800,213.600 316.800 C 214.133 316.800,214.400 316.533,214.400 316.000 C 214.400 315.467,214.667 315.200,215.200 315.200 C 215.867 315.200,216.000 315.467,216.000 316.800 C 216.000 317.680,216.180 318.400,216.400 318.400 C 216.620 318.400,216.800 318.220,216.800 318.000 C 216.800 317.253,218.902 317.595,219.656 318.464 C 220.068 318.939,220.534 319.200,220.691 319.042 C 220.848 318.885,220.712 318.586,220.388 318.378 C 219.884 318.054,219.881 317.948,220.366 317.636 C 220.933 317.271,223.624 317.513,224.000 317.963 C 224.110 318.095,225.004 318.254,225.986 318.317 C 226.969 318.380,227.904 318.645,228.065 318.904 C 228.225 319.164,228.501 319.222,228.678 319.034 C 228.855 318.845,228.775 318.610,228.500 318.512 C 227.710 318.230,227.918 317.600,228.800 317.600 C 229.240 317.600,229.600 317.780,229.600 318.000 C 229.600 318.538,231.728 318.512,232.273 317.967 C 232.583 317.657,232.938 317.680,233.528 318.048 C 234.204 318.470,234.538 318.462,235.400 318.000 C 236.232 317.555,236.609 317.538,237.219 317.919 C 238.154 318.503,239.861 318.549,240.200 318.000 C 240.525 317.474,246.400 317.474,246.400 318.000 C 246.400 319.002,247.952 318.356,248.073 317.303 C 248.158 316.570,248.465 316.166,249.000 316.083 C 249.440 316.015,250.196 315.762,250.680 315.522 C 251.508 315.112,253.234 315.208,256.300 315.834 C 257.442 316.068,257.600 315.997,257.600 315.250 C 257.600 314.667,257.851 314.400,258.400 314.400 C 258.840 314.400,259.200 314.220,259.200 314.000 C 259.200 313.780,259.380 313.600,259.600 313.600 C 259.820 313.600,260.000 313.960,260.000 314.400 C 260.000 314.840,260.180 315.200,260.400 315.200 C 260.620 315.200,260.800 314.859,260.800 314.443 C 260.800 313.524,261.491 313.214,262.925 313.488 C 263.573 313.612,264.000 313.516,264.000 313.247 C 264.000 313.001,264.345 312.800,264.767 312.800 C 265.188 312.800,265.625 312.575,265.736 312.300 C 265.892 311.915,266.029 311.928,266.329 312.358 C 266.648 312.814,266.914 312.722,267.778 311.858 C 268.967 310.669,269.600 310.510,269.600 311.400 C 269.600 312.274,269.943 312.146,271.200 310.800 C 271.889 310.062,272.721 309.600,273.360 309.600 C 273.932 309.600,274.400 309.420,274.400 309.200 C 274.400 308.622,275.902 308.707,276.099 309.296 C 276.298 309.894,277.600 308.745,277.600 307.973 C 277.600 307.110,278.959 306.426,280.700 306.413 C 282.298 306.401,283.002 305.867,281.904 305.501 C 281.543 305.381,281.589 305.154,282.075 304.668 C 282.864 303.879,283.865 303.796,284.102 304.500 C 284.350 305.237,285.600 304.111,285.600 303.151 C 285.600 302.738,285.780 302.400,286.000 302.400 C 286.220 302.400,286.400 302.580,286.400 302.800 C 286.400 303.020,286.580 303.200,286.800 303.200 C 287.020 303.200,287.200 302.840,287.200 302.400 C 287.200 301.733,287.467 301.600,288.800 301.600 C 289.680 301.600,290.400 301.420,290.400 301.200 C 290.400 300.980,290.220 300.800,290.000 300.800 C 289.780 300.800,289.600 300.440,289.600 300.000 C 289.600 299.307,289.867 299.200,291.600 299.200 C 292.700 299.200,293.600 299.020,293.600 298.800 C 293.600 298.580,293.420 298.400,293.200 298.400 C 292.980 298.400,292.800 298.040,292.800 297.600 C 292.800 297.067,293.067 296.800,293.600 296.800 C 294.133 296.800,294.400 297.067,294.400 297.600 C 294.400 298.040,294.580 298.400,294.800 298.400 C 295.020 298.400,295.200 297.860,295.200 297.200 C 295.200 296.267,295.378 296.000,296.000 296.000 C 296.622 296.000,296.800 295.733,296.800 294.800 C 296.800 293.867,296.978 293.600,297.600 293.600 C 298.040 293.600,298.400 293.780,298.400 294.000 C 298.400 294.220,298.760 294.400,299.200 294.400 C 299.640 294.400,300.000 294.220,300.000 294.000 C 300.000 293.780,299.820 293.600,299.600 293.600 C 299.380 293.600,299.200 293.240,299.200 292.800 C 299.200 292.267,299.467 292.000,300.000 292.000 C 300.533 292.000,300.800 291.733,300.800 291.200 C 300.800 290.304,302.211 290.057,302.512 290.900 C 302.616 291.191,302.839 291.252,303.045 291.045 C 303.252 290.839,303.191 290.616,302.900 290.512 C 302.057 290.211,302.304 288.800,303.200 288.800 C 303.733 288.800,304.000 288.533,304.000 288.000 C 304.000 287.378,304.267 287.200,305.200 287.200 C 306.373 287.200,306.400 287.156,306.400 285.200 C 306.400 283.244,306.427 283.200,307.600 283.200 C 308.733 283.200,308.800 283.111,308.800 281.600 C 308.800 280.002,310.061 279.183,310.499 280.496 C 310.619 280.857,310.846 280.811,311.332 280.325 C 312.204 279.453,312.175 279.200,311.200 279.200 C 310.667 279.200,310.400 278.933,310.400 278.400 C 310.400 277.867,310.667 277.600,311.200 277.600 C 312.114 277.600,312.233 276.784,311.500 275.542 C 311.100 274.865,311.100 274.659,311.500 274.514 C 311.775 274.415,312.000 274.065,312.000 273.738 C 312.000 272.958,312.977 272.000,313.771 272.000 C 314.133 272.000,314.400 271.661,314.400 271.200 C 314.400 270.760,314.220 270.400,314.000 270.400 C 313.780 270.400,313.600 270.040,313.600 269.600 C 313.600 269.160,313.780 268.800,314.000 268.800 C 314.220 268.800,314.400 268.300,314.400 267.688 C 314.400 267.035,314.730 266.339,315.200 266.000 C 315.640 265.683,316.000 265.283,316.000 265.112 C 316.000 264.940,315.640 264.800,315.200 264.800 C 314.760 264.800,314.400 264.620,314.400 264.400 C 314.400 264.180,314.535 263.999,314.700 263.997 C 315.352 263.990,316.004 261.887,315.531 261.317 C 315.188 260.904,315.190 260.650,315.537 260.303 C 315.792 260.048,316.000 259.516,316.000 259.120 C 316.000 258.724,316.180 258.400,316.400 258.400 C 316.952 258.400,316.901 257.352,316.304 256.395 C 315.929 255.794,315.919 255.422,316.262 254.872 C 316.512 254.472,316.630 253.690,316.524 253.135 C 316.407 252.526,316.582 251.875,316.965 251.492 C 317.613 250.844,317.865 248.000,317.275 248.000 C 317.096 248.000,316.956 246.920,316.965 245.600 C 316.978 243.574,317.091 243.200,317.690 243.200 C 318.081 243.200,318.400 243.020,318.400 242.800 C 318.400 242.580,318.220 242.400,318.000 242.400 C 317.420 242.400,317.508 240.900,318.100 240.688 C 318.375 240.590,318.455 240.355,318.278 240.166 C 318.101 239.978,317.804 240.069,317.619 240.370 C 317.242 240.980,316.000 240.677,316.000 239.975 C 316.000 239.728,316.360 239.431,316.800 239.316 C 317.602 239.106,317.954 237.600,317.200 237.600 C 316.623 237.600,316.707 236.110,317.300 235.833 C 317.700 235.647,317.700 235.553,317.300 235.367 C 317.025 235.238,316.800 234.788,316.800 234.367 C 316.800 233.945,316.620 233.600,316.400 233.600 C 316.180 233.600,316.000 232.788,316.000 231.795 C 316.000 230.802,315.775 229.626,315.500 229.182 C 315.088 228.518,315.106 228.302,315.600 227.957 C 316.051 227.643,316.076 227.489,315.700 227.336 C 315.425 227.225,315.200 226.629,315.200 226.013 C 315.200 225.230,314.960 224.830,314.400 224.684 C 313.960 224.569,313.600 224.188,313.600 223.837 C 313.600 223.467,313.935 223.200,314.400 223.200 C 314.840 223.200,315.200 223.020,315.200 222.800 C 315.200 222.580,314.840 222.400,314.400 222.400 C 313.805 222.400,313.600 222.133,313.600 221.360 C 313.600 220.721,313.138 219.889,312.400 219.200 C 311.239 218.116,310.710 216.000,311.600 216.000 C 311.820 216.000,312.000 215.640,312.000 215.200 C 312.000 214.682,311.733 214.400,311.243 214.400 C 310.062 214.400,309.323 209.665,310.400 209.000 C 310.647 208.847,310.800 205.404,310.800 200.000 C 310.800 194.596,310.647 191.153,310.400 191.000 C 310.179 190.864,310.000 189.070,310.000 187.000 C 310.000 184.930,309.821 183.136,309.600 183.000 C 309.380 182.864,309.200 181.863,309.200 180.776 C 309.200 179.689,309.020 178.800,308.800 178.800 C 308.580 178.800,308.400 177.900,308.400 176.800 C 308.400 175.700,308.220 174.800,308.000 174.800 C 307.780 174.800,307.600 174.080,307.600 173.200 C 307.600 172.320,307.420 171.600,307.200 171.600 C 306.980 171.600,306.800 170.981,306.800 170.224 C 306.800 169.467,306.620 168.736,306.400 168.600 C 306.180 168.464,306.000 167.823,306.000 167.176 C 306.000 166.529,305.820 166.000,305.600 166.000 C 305.380 166.000,305.200 165.460,305.200 164.800 C 305.200 164.140,305.020 163.600,304.800 163.600 C 304.580 163.600,304.400 163.060,304.400 162.400 C 304.400 161.740,304.220 161.200,304.000 161.200 C 303.780 161.200,303.600 160.840,303.600 160.400 C 303.600 159.960,303.420 159.600,303.200 159.600 C 302.980 159.600,302.800 159.060,302.800 158.400 C 302.800 157.740,302.620 157.200,302.400 157.200 C 302.180 157.200,302.000 156.840,302.000 156.400 C 302.000 155.960,301.820 155.600,301.600 155.600 C 301.380 155.600,301.200 155.240,301.200 154.800 C 301.200 154.360,301.020 154.000,300.800 154.000 C 300.580 154.000,300.400 153.665,300.400 153.255 C 300.400 152.846,299.712 151.174,298.872 149.540 C 298.031 147.906,297.426 146.322,297.526 146.021 C 297.654 145.638,297.498 145.554,297.010 145.741 C 296.426 145.965,296.352 145.844,296.563 145.005 C 296.747 144.272,296.656 144.000,296.226 144.000 C 295.393 144.000,294.906 141.244,295.647 140.726 C 296.074 140.427,296.086 140.293,295.700 140.136 C 295.379 140.006,295.200 139.085,295.200 137.567 C 295.200 135.467,295.110 135.200,294.400 135.200 C 293.867 135.200,293.600 134.933,293.600 134.400 C 293.600 133.867,293.867 133.600,294.400 133.600 C 294.840 133.600,295.200 133.420,295.200 133.200 C 295.200 132.980,294.840 132.800,294.400 132.800 C 293.778 132.800,293.600 132.533,293.600 131.600 C 293.600 130.667,293.422 130.400,292.800 130.400 C 292.267 130.400,292.000 130.133,292.000 129.600 C 292.000 129.160,291.820 128.800,291.600 128.800 C 291.380 128.800,291.200 128.260,291.200 127.600 C 291.200 126.940,291.380 126.400,291.600 126.400 C 291.820 126.400,292.000 126.040,292.000 125.600 C 292.000 125.067,291.733 124.800,291.200 124.800 C 290.760 124.800,290.400 124.620,290.400 124.400 C 290.400 124.180,290.040 124.000,289.600 124.000 C 289.067 124.000,288.800 123.733,288.800 123.200 C 288.800 122.760,288.620 122.400,288.400 122.400 C 288.180 122.400,288.000 122.040,288.000 121.600 C 288.000 121.160,287.820 120.800,287.600 120.800 C 287.380 120.800,287.200 120.080,287.200 119.200 C 287.200 117.689,287.133 117.600,286.000 117.600 C 285.067 117.600,284.800 117.422,284.800 116.800 C 284.800 116.360,284.620 116.000,284.400 116.000 C 284.180 116.000,284.000 115.460,284.000 114.800 C 284.000 113.976,283.803 113.600,283.371 113.600 C 282.480 113.600,281.600 112.607,281.600 111.600 C 281.600 110.493,280.694 109.600,279.573 109.600 C 278.414 109.600,277.629 108.518,277.613 106.900 C 277.599 105.546,277.271 105.289,276.515 106.045 C 275.981 106.579,275.200 106.181,275.200 105.376 C 275.200 105.059,275.020 104.800,274.800 104.800 C 274.580 104.800,274.400 104.260,274.400 103.600 C 274.400 102.776,274.203 102.400,273.771 102.400 C 272.880 102.400,272.000 101.407,272.000 100.400 C 272.000 99.303,271.097 98.400,270.000 98.400 C 268.741 98.400,268.000 97.448,268.000 95.829 C 268.000 95.043,267.820 94.400,267.600 94.400 C 267.380 94.400,267.200 94.580,267.200 94.800 C 267.200 95.020,266.480 95.200,265.600 95.200 C 264.089 95.200,264.000 95.133,264.000 94.000 C 264.000 93.340,263.820 92.800,263.600 92.800 C 263.380 92.800,263.200 92.980,263.200 93.200 C 263.200 93.420,262.840 93.600,262.400 93.600 C 261.960 93.600,261.600 93.420,261.600 93.200 C 261.600 92.980,261.240 92.800,260.800 92.800 C 260.267 92.800,260.000 92.533,260.000 92.000 C 260.000 91.560,259.820 91.200,259.600 91.200 C 259.380 91.200,259.200 90.840,259.200 90.400 C 259.200 89.867,258.933 89.600,258.400 89.600 C 257.960 89.600,257.600 89.420,257.600 89.200 C 257.600 88.980,257.240 88.800,256.800 88.800 C 256.360 88.800,256.000 88.980,256.000 89.200 C 256.000 89.907,254.596 89.626,254.000 88.800 C 253.609 88.258,252.965 88.000,252.000 88.000 C 251.035 88.000,250.391 87.742,250.000 87.200 C 249.683 86.760,249.103 86.400,248.712 86.400 C 248.320 86.400,248.000 86.220,248.000 86.000 C 248.000 85.780,247.640 85.600,247.200 85.600 C 246.667 85.600,246.400 85.333,246.400 84.800 C 246.400 84.267,246.133 84.000,245.600 84.000 C 245.160 84.000,244.800 84.180,244.800 84.400 C 244.800 84.620,244.440 84.800,244.000 84.800 C 243.560 84.800,243.200 84.620,243.200 84.400 C 243.200 84.180,242.840 84.000,242.400 84.000 C 241.960 84.000,241.600 83.820,241.600 83.600 C 241.600 83.380,241.420 83.200,241.200 83.200 C 240.980 83.200,240.800 83.560,240.800 84.000 C 240.800 84.533,240.533 84.800,240.000 84.800 C 239.560 84.800,239.200 84.620,239.200 84.400 C 239.200 84.180,238.840 84.000,238.400 84.000 C 237.960 84.000,237.600 83.820,237.600 83.600 C 237.600 83.380,237.060 83.200,236.400 83.200 C 235.740 83.200,235.200 83.020,235.200 82.800 C 235.200 82.580,234.840 82.400,234.400 82.400 C 233.867 82.400,233.600 82.667,233.600 83.200 C 233.600 84.264,232.494 84.231,231.547 83.139 L 230.800 82.278 230.053 83.139 C 229.106 84.231,228.000 84.264,228.000 83.200 C 228.000 82.760,227.820 82.400,227.600 82.400 C 227.380 82.400,227.200 82.580,227.200 82.800 C 227.200 83.020,226.366 83.200,225.347 83.200 C 223.957 83.200,223.310 83.412,222.759 84.047 C 221.963 84.965,220.800 84.826,220.800 83.813 C 220.800 83.122,219.388 82.972,218.988 83.620 C 218.827 83.880,218.457 83.727,218.017 83.220 C 217.215 82.295,214.586 82.070,214.286 82.900 C 214.141 83.300,213.935 83.300,213.258 82.900 C 212.792 82.625,212.138 82.400,211.805 82.400 C 211.472 82.400,211.200 82.220,211.200 82.000 C 211.200 81.276,210.498 81.583,210.284 82.400 C 210.074 83.204,208.800 83.547,208.800 82.800 C 208.800 82.580,208.440 82.400,208.000 82.400 C 207.560 82.400,207.200 82.220,207.200 82.000 C 207.200 81.780,206.660 81.600,206.000 81.600 C 205.340 81.600,204.800 81.420,204.800 81.200 C 204.800 80.980,204.260 80.800,203.600 80.800 C 202.940 80.800,202.400 80.980,202.400 81.200 C 202.400 81.420,202.580 81.600,202.800 81.600 C 203.020 81.600,203.200 81.780,203.200 82.000 C 203.200 82.712,201.914 82.424,201.147 81.539 L 200.400 80.678 199.653 81.539 C 198.706 82.631,197.600 82.664,197.600 81.600 C 197.600 81.160,197.780 80.800,198.000 80.800 C 198.220 80.800,198.400 80.620,198.400 80.400 C 198.400 79.748,197.818 79.942,197.200 80.800 M187.200 83.600 C 187.200 83.820,186.840 84.000,186.400 84.000 C 185.960 84.000,185.600 83.820,185.600 83.600 C 185.600 83.380,185.960 83.200,186.400 83.200 C 186.840 83.200,187.200 83.380,187.200 83.600 M175.200 86.000 C 175.200 86.220,175.560 86.400,176.000 86.400 C 176.440 86.400,176.800 86.220,176.800 86.000 C 176.800 85.780,176.440 85.600,176.000 85.600 C 175.560 85.600,175.200 85.780,175.200 86.000 M274.400 131.413 C 274.400 131.531,273.321 133.412,272.003 135.594 C 268.181 141.923,266.661 145.712,264.142 155.200 C 258.788 175.367,253.522 180.483,230.745 187.653 C 222.665 190.196,217.827 192.155,214.259 194.330 C 210.981 196.327,210.800 196.350,210.800 194.771 C 210.800 186.347,227.389 162.224,239.507 153.025 C 242.127 151.036,241.936 150.817,238.912 152.343 C 226.003 158.860,213.483 172.933,209.415 185.500 C 207.279 192.101,206.777 182.741,208.805 174.117 C 213.251 155.209,227.920 141.445,250.200 135.274 C 260.067 132.541,274.400 130.255,274.400 131.413 M154.065 141.622 C 160.880 143.436,165.500 152.616,163.078 159.532 L 162.471 161.264 167.761 172.132 C 181.369 200.089,180.540 197.424,175.497 197.015 C 170.847 196.638,162.129 195.648,161.025 195.371 C 160.269 195.181,158.941 192.766,153.803 182.238 L 147.508 169.338 144.958 168.227 C 129.097 161.317,137.360 137.178,154.065 141.622 M176.462 153.548 C 189.769 156.909,198.388 163.056,202.615 172.200 C 204.506 176.289,204.800 178.341,204.800 187.432 C 204.800 196.918,204.933 196.639,201.054 195.243 C 191.082 191.655,185.498 184.116,181.174 168.400 C 179.158 161.076,177.270 157.954,172.903 154.728 C 169.438 152.169,170.113 151.945,176.462 153.548 M143.910 178.869 C 143.824 179.127,142.594 179.952,141.177 180.703 C 129.716 186.776,130.477 191.682,143.600 196.308 C 158.100 201.420,196.323 204.312,219.800 202.074 C 257.795 198.452,272.142 190.785,257.344 182.010 C 249.607 177.422,259.711 178.335,269.000 183.063 C 273.905 185.560,275.015 187.709,274.619 193.942 C 273.239 215.680,263.383 235.659,247.400 249.117 C 200.215 288.850,129.696 260.303,121.993 198.350 C 120.868 189.303,121.697 186.361,126.126 183.679 C 131.069 180.686,144.517 177.049,143.910 178.869 M257.600 209.250 C 248.200 212.633,227.225 215.762,205.427 217.032 C 197.473 217.496,201.554 218.119,213.872 218.322 C 227.213 218.541,235.336 218.013,246.945 216.171 C 251.889 215.387,251.995 215.532,249.858 220.158 C 244.841 231.016,234.249 243.706,223.679 251.521 C 220.296 254.023,221.127 254.079,226.134 251.687 C 240.913 244.627,253.222 230.095,259.361 212.458 C 260.917 207.986,260.949 208.045,257.600 209.250 M122.400 283.400 C 122.400 283.730,122.220 284.000,122.000 284.000 C 121.780 284.000,121.600 283.730,121.600 283.400 C 121.600 283.070,121.780 282.800,122.000 282.800 C 122.220 282.800,122.400 283.070,122.400 283.400 " stroke="none" fill="#fbfbfb" fill-rule="evenodd"></path><path id="path2" d="M221.600 151.400 C 220.628 152.390,219.923 153.200,220.033 153.200 C 220.143 153.200,221.028 152.390,222.000 151.400 C 222.972 150.410,223.677 149.600,223.567 149.600 C 223.457 149.600,222.572 150.410,221.600 151.400 M174.400 155.325 C 174.400 155.394,174.985 155.979,175.700 156.625 L 177.000 157.800 175.825 156.500 C 174.730 155.288,174.400 155.016,174.400 155.325 M260.000 183.325 C 260.000 183.394,260.585 183.979,261.300 184.625 L 262.600 185.800 261.425 184.500 C 260.330 183.288,260.000 183.016,260.000 183.325 M204.524 187.400 C 204.526 188.720,204.601 189.212,204.690 188.493 C 204.779 187.774,204.777 186.694,204.686 186.093 C 204.595 185.492,204.522 186.080,204.524 187.400 M183.900 203.082 C 184.395 203.178,185.205 203.178,185.700 203.082 C 186.195 202.987,185.790 202.909,184.800 202.909 C 183.810 202.909,183.405 202.987,183.900 203.082 M210.700 203.082 C 211.195 203.178,212.005 203.178,212.500 203.082 C 212.995 202.987,212.590 202.909,211.600 202.909 C 210.610 202.909,210.205 202.987,210.700 203.082 M210.100 216.276 C 210.485 216.376,211.115 216.376,211.500 216.276 C 211.885 216.175,211.570 216.093,210.800 216.093 C 210.030 216.093,209.715 216.175,210.100 216.276 M204.500 216.676 C 204.885 216.776,205.515 216.776,205.900 216.676 C 206.285 216.575,205.970 216.493,205.200 216.493 C 204.430 216.493,204.115 216.575,204.500 216.676 M195.600 217.218 C 195.162 217.515,195.324 217.552,196.200 217.356 C 197.671 217.027,197.990 216.798,196.967 216.806 C 196.545 216.809,195.930 216.995,195.600 217.218 M207.505 218.683 C 208.002 218.779,208.722 218.775,209.105 218.675 C 209.487 218.575,209.080 218.496,208.200 218.501 C 207.320 218.505,207.007 218.587,207.505 218.683 M226.705 218.683 C 227.202 218.779,227.922 218.775,228.305 218.675 C 228.687 218.575,228.280 218.496,227.400 218.501 C 226.520 218.505,226.207 218.587,226.705 218.683 M145.800 246.000 C 146.883 247.100,147.860 248.000,147.970 248.000 C 148.080 248.000,147.283 247.100,146.200 246.000 C 145.117 244.900,144.140 244.000,144.030 244.000 C 143.920 244.000,144.717 244.900,145.800 246.000 M195.700 267.096 C 196.965 267.175,199.035 267.175,200.300 267.096 C 201.565 267.016,200.530 266.951,198.000 266.951 C 195.470 266.951,194.435 267.016,195.700 267.096 " stroke="none" fill="#bc80fc" fill-rule="evenodd"></path><path id="path3" d="M268.000 131.600 C 266.629 131.889,266.625 131.895,267.800 131.924 C 268.460 131.941,269.720 131.805,270.600 131.623 L 272.200 131.292 270.800 131.299 C 270.030 131.302,268.770 131.438,268.000 131.600 M273.759 131.533 C 273.872 131.716,273.530 132.506,272.998 133.288 C 271.433 135.593,269.552 138.885,269.711 139.044 C 269.857 139.191,274.400 131.788,274.400 131.402 C 274.400 131.291,274.209 131.200,273.976 131.200 C 273.743 131.200,273.645 131.350,273.759 131.533 M262.800 132.400 C 261.450 132.684,261.443 132.695,262.600 132.700 C 263.260 132.703,264.340 132.568,265.000 132.400 C 266.660 131.978,264.807 131.978,262.800 132.400 M258.600 133.200 C 257.522 133.474,257.502 133.506,258.400 133.513 C 258.950 133.517,259.850 133.376,260.400 133.200 C 261.744 132.769,260.292 132.769,258.600 133.200 M253.668 134.270 C 252.276 134.600,251.214 134.947,251.309 135.043 C 251.493 135.226,256.879 134.055,257.165 133.768 C 257.452 133.481,256.304 133.646,253.668 134.270 M249.000 135.600 C 248.496 135.817,248.422 135.944,248.800 135.944 C 249.130 135.944,249.760 135.789,250.200 135.600 C 250.704 135.383,250.778 135.256,250.400 135.256 C 250.070 135.256,249.440 135.411,249.000 135.600 M245.275 136.673 C 244.326 137.009,243.621 137.354,243.707 137.440 C 243.793 137.527,244.840 137.251,246.032 136.828 C 247.224 136.405,247.930 136.060,247.600 136.061 C 247.270 136.062,246.224 136.338,245.275 136.673 M235.600 140.838 C 233.950 141.733,232.420 142.649,232.200 142.875 C 231.877 143.205,238.581 139.796,239.167 139.332 C 239.959 138.704,238.041 139.514,235.600 140.838 M148.000 141.173 C 147.057 141.354,147.710 141.443,150.000 141.447 C 152.151 141.450,152.959 141.350,152.200 141.173 C 150.717 140.829,149.798 140.829,148.000 141.173 M267.823 142.606 C 266.960 144.672,267.074 144.906,268.047 143.062 C 268.493 142.216,268.765 141.432,268.652 141.319 C 268.539 141.206,268.166 141.785,267.823 142.606 M155.180 142.446 C 156.160 142.880,157.229 143.452,157.557 143.718 C 158.028 144.099,158.090 144.094,157.850 143.694 C 157.482 143.083,154.637 141.589,153.916 141.628 C 153.632 141.644,154.201 142.012,155.180 142.446 M142.100 143.710 C 140.445 144.967,137.600 148.531,137.600 149.349 C 137.600 149.573,138.110 148.956,138.733 147.978 C 139.808 146.291,142.156 143.963,143.832 142.924 C 144.254 142.661,144.420 142.441,144.200 142.434 C 143.980 142.426,143.035 143.001,142.100 143.710 M229.893 144.214 C 229.072 144.772,228.400 145.315,228.400 145.420 C 228.400 145.525,229.120 145.135,230.000 144.553 C 231.397 143.628,231.870 143.200,231.493 143.200 C 231.434 143.200,230.714 143.656,229.893 144.214 M159.667 145.600 C 160.452 146.590,161.313 147.820,161.580 148.334 C 161.846 148.848,162.158 149.176,162.271 149.062 C 162.546 148.787,160.334 145.608,159.166 144.600 C 158.636 144.142,158.849 144.569,159.667 145.600 M265.674 148.464 C 265.022 150.519,264.385 152.830,264.258 153.600 L 264.029 155.000 264.474 153.600 C 266.522 147.157,267.147 145.014,267.015 144.881 C 266.930 144.797,266.327 146.409,265.674 148.464 M224.761 148.150 C 220.579 151.751,216.323 156.670,214.760 159.709 C 214.082 161.028,214.820 160.144,217.013 157.013 C 219.022 154.145,223.229 149.706,226.400 147.110 C 227.390 146.299,228.092 145.628,227.961 145.618 C 227.830 145.608,226.390 146.747,224.761 148.150 M137.000 150.800 C 136.850 151.273,136.817 151.750,136.927 151.860 C 137.037 151.970,137.250 151.673,137.400 151.200 C 137.550 150.727,137.583 150.250,137.473 150.140 C 137.363 150.030,137.150 150.327,137.000 150.800 M239.248 151.783 C 237.405 152.751,235.695 153.750,235.448 154.002 C 235.202 154.255,236.404 153.707,238.121 152.785 C 241.845 150.784,242.345 150.870,239.507 153.025 C 233.010 157.957,220.748 172.351,217.208 179.200 C 216.351 180.860,216.986 180.014,220.085 175.374 C 225.846 166.747,233.863 157.844,240.500 152.702 C 242.205 151.381,243.600 150.233,243.600 150.150 C 243.600 149.701,242.245 150.210,239.248 151.783 M163.288 155.200 C 163.288 158.115,163.336 158.357,163.623 156.900 C 163.807 155.965,163.807 154.435,163.623 153.500 C 163.336 152.043,163.288 152.285,163.288 155.200 M171.013 152.779 C 170.884 152.988,171.728 153.867,172.889 154.733 C 175.824 156.922,176.992 158.251,178.595 161.226 C 179.358 162.642,179.986 163.645,179.991 163.456 C 180.024 162.217,177.111 158.019,174.680 155.799 C 173.126 154.381,172.027 153.080,172.178 152.835 C 172.326 152.595,172.178 152.400,171.847 152.400 C 171.517 152.400,171.142 152.571,171.013 152.779 M136.528 155.200 C 136.528 156.630,136.601 157.215,136.689 156.500 C 136.778 155.785,136.778 154.615,136.689 153.900 C 136.601 153.185,136.528 153.770,136.528 155.200 M173.800 153.200 C 174.240 153.389,174.960 153.538,175.400 153.532 C 176.043 153.523,176.004 153.457,175.200 153.200 C 173.832 152.762,172.781 152.762,173.800 153.200 M180.200 154.972 C 182.400 155.699,184.560 156.424,185.000 156.584 C 185.646 156.819,185.684 156.791,185.200 156.437 C 184.501 155.926,177.426 153.588,176.695 153.626 C 176.423 153.640,178.000 154.246,180.200 154.972 M232.166 156.052 C 224.010 161.748,216.486 169.945,212.848 177.100 C 211.459 179.833,212.140 179.061,214.109 175.672 C 218.432 168.232,225.500 160.932,234.006 155.121 C 234.553 154.748,234.895 154.433,234.766 154.421 C 234.638 154.409,233.468 155.144,232.166 156.052 M262.448 159.668 C 260.704 165.606,260.702 165.613,261.404 164.095 C 262.183 162.408,264.053 155.959,263.898 155.494 C 263.832 155.297,263.180 157.176,262.448 159.668 M186.000 156.971 C 186.000 157.247,188.514 158.420,188.702 158.231 C 188.797 158.136,188.327 157.776,187.657 157.429 C 186.409 156.784,186.000 156.671,186.000 156.971 M136.856 158.400 C 136.856 158.730,137.011 159.360,137.200 159.800 C 137.417 160.304,137.544 160.378,137.544 160.000 C 137.544 159.670,137.389 159.040,137.200 158.600 C 136.983 158.096,136.856 158.022,136.856 158.400 M189.400 158.656 C 189.620 158.860,190.833 159.717,192.096 160.560 C 196.289 163.358,199.405 166.793,201.825 171.283 C 203.371 174.150,203.694 174.149,202.241 171.281 C 199.947 166.754,194.979 161.560,190.705 159.219 C 189.767 158.706,189.180 158.452,189.400 158.656 M137.600 161.033 C 137.600 162.165,141.592 166.574,143.400 167.438 C 144.060 167.753,144.254 167.784,143.832 167.506 C 142.047 166.331,139.789 164.080,138.733 162.422 C 138.110 161.444,137.600 160.819,137.600 161.033 M212.592 163.615 C 211.169 166.441,208.783 173.047,208.820 174.059 C 208.830 174.357,209.443 172.786,210.180 170.569 C 210.917 168.352,212.171 165.247,212.965 163.669 C 213.760 162.091,214.320 160.800,214.210 160.800 C 214.100 160.800,213.372 162.067,212.592 163.615 M162.421 161.669 C 162.386 162.119,166.915 171.219,167.088 171.046 C 167.176 170.957,166.167 168.750,164.845 166.142 C 163.523 163.534,162.432 161.521,162.421 161.669 M180.131 164.600 C 180.257 165.040,180.828 167.110,181.400 169.200 C 182.825 174.412,182.849 174.484,183.057 174.276 C 183.273 174.060,180.537 164.396,180.159 164.042 C 180.017 163.909,180.004 164.160,180.131 164.600 M258.836 169.020 C 255.987 174.459,252.260 178.112,246.000 181.602 C 244.350 182.521,243.360 183.159,243.800 183.018 C 248.880 181.389,256.340 174.708,259.151 169.269 C 260.098 167.438,260.810 165.877,260.734 165.801 C 260.658 165.724,259.804 167.173,258.836 169.020 M146.032 168.667 C 147.253 169.170,147.719 169.779,149.209 172.818 C 150.169 174.776,151.021 176.313,151.102 176.231 C 151.672 175.661,147.524 168.852,146.359 168.446 C 144.547 167.814,144.325 167.964,146.032 168.667 M168.821 174.862 C 168.784 175.323,174.100 186.034,174.277 185.856 C 174.371 185.762,173.187 183.191,171.645 180.143 C 170.103 177.094,168.832 174.718,168.821 174.862 M183.200 175.107 C 183.200 175.674,185.272 180.462,185.443 180.291 C 185.569 180.164,183.653 175.163,183.352 174.833 C 183.268 174.742,183.200 174.865,183.200 175.107 M208.218 176.618 C 208.065 177.639,208.022 178.555,208.122 178.655 C 208.222 178.755,208.429 178.002,208.582 176.982 C 208.735 175.961,208.778 175.045,208.678 174.945 C 208.578 174.845,208.371 175.598,208.218 176.618 M204.319 180.600 C 204.422 183.020,204.572 185.075,204.653 185.167 C 204.918 185.467,204.712 178.630,204.419 177.400 C 204.262 176.740,204.217 178.180,204.319 180.600 M136.800 179.591 C 127.083 182.206,122.329 185.151,121.801 188.882 C 121.625 190.124,121.639 190.114,122.046 188.702 C 123.047 185.233,128.319 182.176,137.140 179.948 C 142.381 178.624,142.861 178.576,142.545 179.400 C 142.269 180.119,142.849 180.191,143.520 179.520 C 145.003 178.037,142.474 178.063,136.800 179.591 M254.886 179.138 C 254.019 179.689,254.726 180.539,257.267 181.997 C 258.605 182.765,260.487 184.269,261.450 185.340 C 262.412 186.411,263.200 187.113,263.200 186.901 C 263.200 186.267,259.141 182.630,257.100 181.436 C 255.192 180.319,254.592 179.200,255.903 179.200 C 256.496 179.200,258.887 179.807,264.400 181.357 C 265.183 181.577,265.257 181.548,264.742 181.223 C 262.942 180.086,255.779 178.571,254.886 179.138 M152.821 180.233 C 152.849 180.711,159.151 193.088,159.179 192.718 C 159.201 192.429,153.298 180.365,152.978 180.045 C 152.880 179.947,152.809 180.032,152.821 180.233 M207.556 183.200 C 207.293 186.867,207.401 187.600,208.204 187.600 C 208.715 187.600,209.774 185.241,209.421 184.888 C 209.321 184.788,209.121 185.177,208.976 185.753 C 208.468 187.777,208.030 186.764,207.916 183.300 L 207.800 179.800 207.556 183.200 M215.400 182.400 C 214.843 183.500,214.477 184.400,214.587 184.400 C 214.697 184.400,215.243 183.500,215.800 182.400 C 216.357 181.300,216.723 180.400,216.613 180.400 C 216.503 180.400,215.957 181.300,215.400 182.400 M138.801 181.656 C 135.577 183.621,132.204 187.138,132.888 187.821 C 132.969 187.902,133.376 187.335,133.793 186.562 C 134.439 185.361,137.095 183.063,139.846 181.324 C 140.261 181.061,140.510 180.837,140.400 180.825 C 140.290 180.813,139.570 181.187,138.801 181.656 M210.272 182.219 C 209.902 182.993,209.604 183.846,209.609 184.114 C 209.614 184.381,209.977 183.808,210.416 182.840 C 211.367 180.744,211.239 180.191,210.272 182.219 M187.077 183.625 C 190.007 188.592,199.633 196.501,201.038 195.095 C 201.160 194.973,200.842 194.749,200.330 194.598 C 196.684 193.520,190.967 188.847,188.205 184.687 C 186.591 182.256,185.869 181.576,187.077 183.625 M269.400 183.476 C 269.620 183.679,270.490 184.350,271.334 184.968 C 272.178 185.587,273.212 186.657,273.633 187.346 C 274.053 188.036,274.398 188.376,274.399 188.101 C 274.401 187.345,271.622 184.430,270.230 183.728 C 269.554 183.388,269.180 183.274,269.400 183.476 M237.292 185.092 C 235.693 185.656,234.456 186.190,234.545 186.278 C 234.715 186.448,240.389 184.544,240.732 184.202 C 241.102 183.831,240.223 184.059,237.292 185.092 M213.472 186.219 C 212.532 188.189,212.664 188.524,213.647 186.662 C 214.093 185.816,214.387 185.054,214.301 184.967 C 214.214 184.881,213.841 185.444,213.472 186.219 M229.875 187.476 C 228.157 188.031,226.828 188.561,226.922 188.656 C 227.017 188.750,228.693 188.298,230.647 187.652 C 232.601 187.006,233.930 186.476,233.600 186.473 C 233.270 186.470,231.594 186.922,229.875 187.476 M263.200 188.869 C 263.200 189.855,262.789 190.531,261.351 191.909 C 260.334 192.883,259.859 193.489,260.296 193.256 C 262.330 192.167,264.837 187.600,263.400 187.600 C 263.290 187.600,263.200 188.171,263.200 188.869 M211.845 190.250 C 211.490 191.291,211.213 192.335,211.229 192.571 C 211.245 192.807,211.605 192.024,212.028 190.832 C 212.451 189.640,212.728 188.595,212.644 188.510 C 212.559 188.426,212.200 189.208,211.845 190.250 M274.531 191.400 C 274.533 192.940,274.605 193.521,274.692 192.691 C 274.779 191.861,274.777 190.601,274.689 189.891 C 274.600 189.181,274.529 189.860,274.531 191.400 M132.825 189.687 C 132.770 191.187,139.606 196.044,141.690 195.986 C 141.971 195.978,140.935 195.378,139.390 194.652 C 136.397 193.247,133.730 191.172,133.184 189.822 C 132.915 189.160,132.846 189.133,132.825 189.687 M176.024 189.710 C 176.011 189.880,176.630 191.271,177.400 192.800 C 179.224 196.421,179.202 196.718,177.100 196.907 L 175.400 197.060 177.113 197.130 C 179.551 197.230,179.641 196.520,177.687 192.648 C 176.785 190.861,176.037 189.539,176.024 189.710 M204.388 192.400 L 204.200 195.400 202.800 195.298 C 201.761 195.221,201.555 195.297,202.000 195.591 C 204.090 196.972,204.889 195.960,204.708 192.160 L 204.576 189.400 204.388 192.400 M221.063 190.580 C 219.778 191.108,218.608 191.673,218.463 191.834 C 218.318 191.995,218.560 191.986,219.000 191.813 C 219.440 191.639,220.700 191.145,221.800 190.714 C 222.900 190.282,223.875 189.855,223.967 189.765 C 224.366 189.370,223.231 189.689,221.063 190.580 M121.635 193.433 C 121.654 194.955,121.817 197.100,121.995 198.200 C 122.209 199.514,122.248 198.623,122.107 195.600 C 121.869 190.477,121.581 189.154,121.635 193.433 M214.444 193.800 C 210.966 195.944,211.287 195.896,211.089 194.300 C 210.931 193.020,210.927 193.023,210.864 194.500 C 210.783 196.399,210.813 196.395,214.839 194.000 C 216.687 192.900,218.012 192.000,217.782 192.000 C 217.551 192.000,216.049 192.810,214.444 193.800 M159.673 194.200 C 159.923 194.750,160.284 195.200,160.473 195.200 C 160.663 195.200,160.524 194.750,160.163 194.200 C 159.803 193.650,159.443 193.200,159.363 193.200 C 159.283 193.200,159.422 193.650,159.673 194.200 M257.600 194.400 C 256.830 194.822,256.344 195.174,256.520 195.183 C 256.944 195.205,259.200 194.032,259.200 193.790 C 259.200 193.528,259.177 193.537,257.600 194.400 M162.600 195.623 C 163.480 195.805,164.740 195.942,165.400 195.927 C 166.300 195.907,166.150 195.820,164.800 195.580 C 162.386 195.150,160.494 195.187,162.600 195.623 M143.444 196.582 C 144.128 196.898,145.208 197.259,145.844 197.384 C 146.833 197.579,146.798 197.533,145.600 197.063 C 143.440 196.216,141.913 195.876,143.444 196.582 M169.000 196.415 C 170.320 196.579,172.300 196.706,173.400 196.698 L 175.400 196.682 173.000 196.385 C 171.680 196.221,169.700 196.094,168.600 196.102 L 166.600 196.118 169.000 196.415 M273.825 198.825 C 273.670 200.394,273.627 201.761,273.729 201.862 C 273.831 201.964,274.043 200.766,274.200 199.200 C 274.357 197.634,274.400 196.267,274.296 196.163 C 274.192 196.058,273.980 197.256,273.825 198.825 M249.800 197.200 L 249.000 197.544 249.800 197.566 C 250.240 197.578,250.870 197.413,251.200 197.200 C 251.995 196.686,250.996 196.686,249.800 197.200 M147.800 198.000 C 148.240 198.189,148.960 198.338,149.400 198.332 C 150.043 198.323,150.004 198.257,149.200 198.000 C 147.832 197.562,146.781 197.562,147.800 198.000 M246.800 198.000 C 245.996 198.257,245.957 198.323,246.600 198.332 C 247.040 198.338,247.760 198.189,248.200 198.000 C 249.219 197.562,248.168 197.562,246.800 198.000 M153.200 199.225 C 154.850 199.633,156.650 199.961,157.200 199.953 C 157.750 199.945,156.670 199.601,154.800 199.189 C 150.438 198.226,149.269 198.253,153.200 199.225 M243.400 198.800 C 242.311 199.077,242.293 199.107,243.200 199.125 C 243.750 199.135,244.560 198.989,245.000 198.800 C 245.986 198.376,245.066 198.376,243.400 198.800 M238.800 199.659 C 237.810 199.863,234.570 200.366,231.600 200.776 C 228.630 201.186,226.796 201.539,227.523 201.561 C 229.489 201.619,242.000 199.711,242.000 199.353 C 242.000 199.128,240.835 199.239,238.800 199.659 M159.400 200.380 C 160.634 200.715,163.464 200.918,163.167 200.650 C 163.075 200.568,161.920 200.400,160.600 200.277 C 159.022 200.130,158.611 200.165,159.400 200.380 M122.495 201.600 C 122.495 202.150,122.632 203.140,122.800 203.800 C 123.072 204.870,123.105 204.892,123.105 204.000 C 123.105 203.450,122.968 202.460,122.800 201.800 C 122.528 200.730,122.495 200.708,122.495 201.600 M165.000 201.223 C 165.880 201.405,167.320 201.540,168.200 201.524 C 169.767 201.494,169.759 201.487,167.800 201.182 C 164.956 200.739,162.812 200.770,165.000 201.223 M172.000 201.994 C 174.292 202.334,179.057 202.513,178.767 202.247 C 178.675 202.164,176.620 201.999,174.200 201.881 C 171.139 201.733,170.470 201.767,172.000 201.994 M220.000 202.000 L 217.400 202.262 219.600 202.291 C 220.810 202.308,222.790 202.184,224.000 202.017 C 226.948 201.609,224.001 201.597,220.000 202.000 M183.400 202.853 C 185.600 202.992,192.260 203.106,198.200 203.106 C 204.140 203.106,210.800 202.992,213.000 202.853 C 215.200 202.714,208.540 202.600,198.200 202.600 C 187.860 202.600,181.200 202.714,183.400 202.853 M272.667 205.867 C 272.279 207.752,272.036 209.369,272.127 209.460 C 272.218 209.551,272.615 208.089,273.010 206.210 C 273.404 204.331,273.647 202.713,273.549 202.616 C 273.452 202.519,273.055 203.981,272.667 205.867 M123.440 206.700 C 123.567 207.635,124.102 209.705,124.629 211.300 C 125.752 214.697,125.586 213.659,124.198 208.600 C 123.655 206.620,123.314 205.765,123.440 206.700 M258.075 208.673 C 257.126 209.009,256.423 209.357,256.513 209.446 C 256.602 209.535,257.446 209.337,258.388 209.004 C 259.330 208.672,260.255 208.400,260.443 208.400 C 260.631 208.400,260.078 210.406,259.215 212.858 C 258.351 215.310,257.799 217.155,257.989 216.958 C 258.278 216.658,261.200 208.653,261.200 208.161 C 261.200 207.841,259.764 208.076,258.075 208.673 M254.200 210.000 C 253.696 210.217,253.622 210.344,254.000 210.344 C 254.330 210.344,254.960 210.189,255.400 210.000 C 255.904 209.783,255.978 209.656,255.600 209.656 C 255.270 209.656,254.640 209.811,254.200 210.000 M271.040 212.240 C 270.653 213.467,270.424 214.558,270.531 214.665 C 270.638 214.772,271.023 213.837,271.387 212.587 C 272.247 209.629,271.955 209.337,271.040 212.240 M251.000 210.800 C 249.981 211.238,251.032 211.238,252.400 210.800 C 253.204 210.543,253.243 210.477,252.600 210.468 C 252.160 210.462,251.440 210.611,251.000 210.800 M247.600 211.600 C 246.808 211.854,246.767 211.920,247.400 211.920 C 247.840 211.920,248.650 211.776,249.200 211.600 C 249.992 211.346,250.033 211.280,249.400 211.280 C 248.960 211.280,248.150 211.424,247.600 211.600 M243.600 212.400 C 242.256 212.831,243.708 212.831,245.400 212.400 C 246.478 212.126,246.498 212.094,245.600 212.087 C 245.050 212.083,244.150 212.224,243.600 212.400 M239.000 213.200 C 237.930 213.472,237.908 213.505,238.800 213.505 C 239.350 213.505,240.340 213.368,241.000 213.200 C 242.070 212.928,242.092 212.895,241.200 212.895 C 240.650 212.895,239.660 213.032,239.000 213.200 M233.600 214.000 L 232.200 214.295 233.600 214.300 C 234.370 214.303,235.540 214.168,236.200 214.000 L 237.400 213.695 236.200 213.700 C 235.540 213.703,234.370 213.838,233.600 214.000 M125.662 214.800 C 125.661 215.130,126.006 216.120,126.429 217.000 C 126.852 217.880,127.086 218.150,126.950 217.600 C 126.575 216.095,125.666 214.116,125.662 214.800 M227.200 214.800 L 225.400 215.080 227.000 215.117 C 227.880 215.137,229.320 215.005,230.200 214.823 L 231.800 214.492 230.400 214.506 C 229.630 214.514,228.190 214.646,227.200 214.800 M219.200 215.600 L 217.000 215.870 219.000 215.900 C 220.100 215.916,221.900 215.790,223.000 215.618 L 225.000 215.307 223.200 215.319 C 222.210 215.325,220.410 215.452,219.200 215.600 M269.446 217.046 C 269.092 218.085,268.872 219.005,268.956 219.090 C 269.041 219.174,269.400 218.393,269.754 217.354 C 270.108 216.315,270.328 215.395,270.244 215.310 C 270.159 215.226,269.800 216.007,269.446 217.046 M250.142 215.884 C 250.733 216.036,250.840 216.333,250.665 217.338 C 250.471 218.447,250.497 218.494,250.874 217.722 C 251.416 216.612,251.040 215.586,250.113 215.646 C 249.460 215.689,249.463 215.709,250.142 215.884 M209.200 216.400 L 206.200 216.656 209.000 216.685 C 210.540 216.700,212.880 216.579,214.200 216.415 L 216.600 216.118 214.400 216.131 C 213.190 216.138,210.850 216.259,209.200 216.400 M245.800 216.400 C 244.137 216.823,245.774 216.842,247.800 216.423 C 249.145 216.145,249.209 216.092,248.200 216.093 C 247.540 216.094,246.460 216.232,245.800 216.400 M196.800 217.165 C 195.383 217.569,197.801 217.969,202.800 218.158 C 204.890 218.237,205.790 218.232,204.800 218.146 C 201.404 217.853,200.755 217.462,203.200 217.182 C 205.045 216.971,204.788 216.926,201.600 216.905 C 199.510 216.891,197.350 217.008,196.800 217.165 M239.600 217.200 C 238.229 217.489,238.225 217.495,239.400 217.524 C 240.060 217.541,241.320 217.405,242.200 217.223 L 243.800 216.892 242.400 216.899 C 241.630 216.902,240.370 217.038,239.600 217.200 M231.200 218.000 L 228.600 218.262 230.800 218.291 C 232.010 218.308,233.990 218.184,235.200 218.017 C 238.148 217.609,235.201 217.597,231.200 218.000 M255.485 221.416 C 254.451 223.497,253.692 225.200,253.799 225.200 C 254.065 225.200,257.685 217.951,257.507 217.774 C 257.429 217.696,256.519 219.334,255.485 221.416 M213.722 218.699 C 216.099 218.770,219.879 218.769,222.122 218.698 C 224.365 218.627,222.420 218.569,217.800 218.569 C 213.180 218.570,211.345 218.628,213.722 218.699 M248.684 221.814 C 247.871 223.456,247.293 224.800,247.398 224.800 C 247.665 224.800,250.485 219.151,250.306 218.973 C 250.227 218.893,249.497 220.172,248.684 221.814 M267.823 221.006 C 266.960 223.072,267.074 223.306,268.047 221.462 C 268.493 220.616,268.765 219.832,268.652 219.719 C 268.539 219.606,268.166 220.185,267.823 221.006 M128.013 220.908 C 127.993 221.393,131.631 228.502,131.809 228.325 C 131.896 228.238,131.080 226.464,129.996 224.383 C 128.912 222.302,128.020 220.739,128.013 220.908 M264.952 226.900 C 259.850 236.993,250.985 246.622,238.798 255.312 C 237.947 255.919,237.932 255.961,238.698 255.599 C 242.275 253.907,251.597 245.775,256.023 240.483 C 260.570 235.047,267.228 224.800,266.212 224.800 C 266.103 224.800,265.536 225.745,264.952 226.900 M245.578 227.300 C 240.264 235.948,229.961 246.788,221.417 252.723 C 219.392 254.129,219.263 254.672,221.061 254.221 C 221.761 254.045,221.985 253.838,221.680 253.649 C 221.369 253.457,222.078 252.705,223.701 251.505 C 231.550 245.701,242.354 233.914,246.364 226.779 C 247.663 224.466,247.083 224.852,245.578 227.300 M251.107 229.100 C 246.327 236.529,239.891 243.272,233.562 247.481 C 230.676 249.400,230.017 250.025,231.917 249.043 C 238.124 245.833,249.079 234.204,253.152 226.500 C 254.144 224.624,253.277 225.726,251.107 229.100 M132.404 229.600 C 135.498 235.759,144.962 246.384,152.200 251.823 C 155.204 254.081,155.933 254.579,158.700 256.273 C 160.934 257.641,158.886 256.044,155.243 253.578 C 147.698 248.470,140.386 241.071,135.306 233.403 C 132.493 229.157,131.582 227.964,132.404 229.600 M227.200 251.200 C 225.550 252.058,224.339 252.769,224.510 252.780 C 224.935 252.807,230.400 250.038,230.400 249.795 C 230.400 249.525,230.532 249.467,227.200 251.200 M233.800 258.020 C 231.820 259.104,228.535 260.653,226.501 261.463 C 222.366 263.108,221.667 263.771,225.649 262.270 C 229.649 260.764,238.857 255.961,237.600 256.038 C 237.490 256.044,235.780 256.936,233.800 258.020 M160.000 256.959 C 160.000 257.251,163.710 259.223,163.901 259.033 C 163.999 258.934,163.162 258.389,162.040 257.820 C 160.918 257.252,160.000 256.864,160.000 256.959 M167.200 260.800 C 167.970 261.222,168.780 261.566,169.000 261.566 C 169.220 261.566,168.770 261.222,168.000 260.800 C 167.230 260.378,166.420 260.034,166.200 260.034 C 165.980 260.034,166.430 260.378,167.200 260.800 M171.600 262.559 C 171.600 262.839,178.960 265.078,180.800 265.358 L 182.200 265.571 180.800 265.139 C 177.165 264.017,172.550 262.607,172.100 262.481 C 171.825 262.404,171.600 262.439,171.600 262.559 M218.200 264.400 C 217.696 264.617,217.622 264.744,218.000 264.744 C 218.330 264.744,218.960 264.589,219.400 264.400 C 219.904 264.183,219.978 264.056,219.600 264.056 C 219.270 264.056,218.640 264.211,218.200 264.400 M215.000 265.200 C 213.981 265.638,215.032 265.638,216.400 265.200 C 217.204 264.943,217.243 264.877,216.600 264.868 C 216.160 264.862,215.440 265.011,215.000 265.200 M183.400 266.000 C 184.060 266.168,185.050 266.305,185.600 266.305 C 186.492 266.305,186.470 266.272,185.400 266.000 C 184.740 265.832,183.750 265.695,183.200 265.695 C 182.308 265.695,182.330 265.728,183.400 266.000 M210.800 266.000 L 209.800 266.320 210.800 266.320 C 211.350 266.320,212.250 266.176,212.800 266.000 L 213.800 265.680 212.800 265.680 C 212.250 265.680,211.350 265.824,210.800 266.000 M188.600 266.801 C 190.194 267.153,193.884 267.336,193.567 267.049 C 193.475 266.965,191.960 266.796,190.200 266.673 C 187.850 266.508,187.425 266.542,188.600 266.801 M204.400 266.800 L 202.200 267.070 204.200 267.112 C 205.300 267.135,206.920 267.005,207.800 266.823 L 209.400 266.492 208.000 266.511 C 207.230 266.522,205.610 266.652,204.400 266.800 " stroke="none" fill="#cea4fc" fill-rule="evenodd"></path><path id="path4" d="M271.700 131.891 C 273.470 132.077,273.473 132.087,272.250 133.727 C 271.229 135.096,270.051 137.260,270.687 136.600 C 271.392 135.868,273.600 132.366,273.600 131.980 C 273.600 131.771,272.835 131.630,271.900 131.667 L 270.200 131.734 271.700 131.891 M265.800 132.420 C 265.011 132.635,265.422 132.670,267.000 132.523 C 268.320 132.400,269.475 132.232,269.567 132.150 C 269.864 131.882,267.034 132.085,265.800 132.420 M261.200 133.200 C 259.856 133.631,261.308 133.631,263.000 133.200 C 264.078 132.926,264.098 132.894,263.200 132.887 C 262.650 132.883,261.750 133.024,261.200 133.200 M257.200 134.000 C 256.408 134.254,256.367 134.320,257.000 134.320 C 257.440 134.320,258.250 134.176,258.800 134.000 C 259.592 133.746,259.633 133.680,259.000 133.680 C 258.560 133.680,257.750 133.824,257.200 134.000 M253.800 134.800 C 252.781 135.238,253.832 135.238,255.200 134.800 C 256.004 134.543,256.043 134.477,255.400 134.468 C 254.960 134.462,254.240 134.611,253.800 134.800 M250.600 135.600 C 250.096 135.817,250.022 135.944,250.400 135.944 C 250.730 135.944,251.360 135.789,251.800 135.600 C 252.304 135.383,252.378 135.256,252.000 135.256 C 251.670 135.256,251.040 135.411,250.600 135.600 M248.000 136.400 C 247.467 136.745,247.467 136.788,248.000 136.788 C 248.330 136.788,248.870 136.613,249.200 136.400 C 249.733 136.055,249.733 136.012,249.200 136.012 C 248.870 136.012,248.330 136.187,248.000 136.400 M244.475 137.473 C 243.526 137.809,242.821 138.154,242.907 138.240 C 242.993 138.327,244.040 138.051,245.232 137.628 C 246.424 137.205,247.130 136.860,246.800 136.861 C 246.470 136.862,245.424 137.138,244.475 137.473 M268.579 140.041 C 267.792 141.604,267.214 142.947,267.294 143.027 C 267.373 143.107,268.103 141.828,268.916 140.186 C 269.729 138.544,270.307 137.200,270.202 137.200 C 270.096 137.200,269.366 138.478,268.579 140.041 M236.057 141.175 C 233.999 142.248,232.112 143.328,231.864 143.576 C 231.498 143.942,239.804 139.802,240.367 139.337 C 241.107 138.727,239.172 139.553,236.057 141.175 M146.623 141.941 C 146.182 142.124,147.311 142.188,149.227 142.087 C 151.766 141.954,152.998 142.072,154.166 142.560 C 155.022 142.918,155.810 143.123,155.917 143.016 C 156.752 142.182,148.373 141.212,146.623 141.941 M143.170 143.533 C 140.598 145.164,137.600 149.101,137.600 150.848 C 137.600 151.112,138.154 150.220,138.830 148.866 C 140.043 146.439,142.058 144.414,144.600 143.068 C 145.260 142.718,145.610 142.425,145.378 142.416 C 145.146 142.407,144.153 142.910,143.170 143.533 M158.873 145.403 C 159.684 146.281,160.806 147.810,161.368 148.800 C 161.931 149.790,162.393 150.410,162.395 150.178 C 162.404 149.438,160.155 146.242,158.754 145.003 C 157.420 143.822,157.421 143.828,158.873 145.403 M226.991 146.865 C 224.701 148.686,220.152 153.133,218.670 155.000 C 217.971 155.880,219.290 154.693,221.600 152.361 C 223.910 150.030,226.520 147.561,227.400 146.875 C 228.280 146.188,228.906 145.621,228.791 145.613 C 228.676 145.606,227.866 146.169,226.991 146.865 M243.655 149.158 C 243.195 149.449,243.194 149.531,243.655 149.685 C 244.037 149.812,243.841 150.192,243.000 150.956 L 241.800 152.045 243.258 151.136 C 245.088 149.995,245.934 148.797,244.903 148.806 C 244.517 148.809,243.955 148.968,243.655 149.158 M240.300 150.626 C 239.255 151.170,238.400 151.705,238.400 151.814 C 238.400 151.993,242.360 150.123,242.767 149.752 C 243.262 149.301,241.961 149.762,240.300 150.626 M264.229 151.429 C 264.081 152.015,264.038 152.572,264.132 152.666 C 264.227 152.760,264.424 152.358,264.571 151.771 C 264.719 151.185,264.762 150.628,264.668 150.534 C 264.573 150.440,264.376 150.842,264.229 151.429 M162.691 154.000 C 162.810 156.359,162.675 158.003,162.250 159.369 C 161.815 160.765,161.757 161.521,162.049 161.969 C 162.416 162.532,162.438 162.529,162.258 161.939 C 162.146 161.575,162.313 160.422,162.627 159.375 C 163.229 157.376,163.330 153.297,162.820 151.600 C 162.654 151.050,162.596 152.130,162.691 154.000 M137.052 152.500 C 136.735 153.683,136.783 157.216,137.128 158.085 C 137.278 158.462,137.400 157.157,137.400 155.185 C 137.400 151.235,137.397 151.213,137.052 152.500 M236.700 152.629 C 235.205 153.440,235.296 153.778,236.800 153.000 C 237.460 152.659,238.000 152.294,238.000 152.190 C 238.000 151.932,237.957 151.947,236.700 152.629 M237.948 154.932 C 230.844 161.153,221.017 172.913,218.004 178.800 C 217.194 180.381,217.714 179.694,220.726 175.200 C 225.788 167.649,233.259 159.206,239.600 153.871 C 240.810 152.853,241.687 152.015,241.548 152.010 C 241.410 152.004,239.790 153.319,237.948 154.932 M172.000 153.373 C 172.000 153.468,172.585 153.952,173.300 154.448 C 174.514 155.292,174.552 155.296,173.876 154.517 C 173.317 153.874,173.271 153.635,173.676 153.473 C 173.964 153.358,173.705 153.249,173.100 153.232 C 172.495 153.214,172.000 153.278,172.000 153.373 M175.200 154.000 C 176.568 154.438,177.619 154.438,176.600 154.000 C 176.160 153.811,175.440 153.662,175.000 153.668 C 174.357 153.677,174.396 153.743,175.200 154.000 M232.895 155.011 C 231.743 155.786,230.800 156.508,230.800 156.615 C 230.800 156.721,231.790 156.151,233.000 155.347 C 234.922 154.071,235.487 153.600,235.095 153.600 C 235.037 153.600,234.047 154.235,232.895 155.011 M263.473 154.153 C 263.323 154.545,263.211 155.166,263.225 155.533 C 263.242 155.975,263.381 155.874,263.637 155.234 C 263.849 154.703,263.961 154.082,263.885 153.854 C 263.809 153.627,263.624 153.761,263.473 154.153 M178.200 154.800 C 178.640 154.989,179.270 155.144,179.600 155.144 C 179.978 155.144,179.904 155.017,179.400 154.800 C 178.960 154.611,178.330 154.456,178.000 154.456 C 177.622 154.456,177.696 154.583,178.200 154.800 M176.297 157.000 C 177.202 158.100,178.404 159.810,178.967 160.800 C 179.530 161.790,179.993 162.403,179.995 162.162 C 180.003 161.458,177.018 157.092,175.783 156.000 C 175.015 155.322,175.181 155.643,176.297 157.000 M262.629 157.429 C 262.481 158.015,262.438 158.572,262.532 158.666 C 262.627 158.760,262.824 158.358,262.971 157.771 C 263.119 157.185,263.162 156.628,263.068 156.534 C 262.973 156.440,262.776 156.842,262.629 157.429 M188.000 158.637 C 189.870 159.640,192.030 160.910,192.800 161.459 L 194.200 162.458 192.816 161.230 C 191.511 160.071,185.671 156.792,184.939 156.807 C 184.753 156.810,186.130 157.634,188.000 158.637 M215.354 159.629 C 214.348 161.185,213.618 162.551,213.733 162.666 C 213.847 162.781,214.250 162.273,214.627 161.537 C 215.004 160.802,215.836 159.435,216.475 158.500 C 217.115 157.565,217.536 156.800,217.411 156.800 C 217.286 156.800,216.360 158.073,215.354 159.629 M228.372 158.266 C 225.786 160.406,220.142 165.949,218.671 167.794 C 217.972 168.670,219.560 167.211,222.200 164.552 C 224.840 161.892,227.810 159.064,228.800 158.266 C 229.790 157.468,230.497 156.812,230.372 156.808 C 230.247 156.804,229.347 157.460,228.372 158.266 M137.632 159.520 C 137.596 160.098,138.707 162.400,139.021 162.400 C 139.131 162.400,138.971 161.905,138.665 161.300 C 138.360 160.695,138.009 159.930,137.886 159.600 C 137.736 159.197,137.653 159.171,137.632 159.520 M260.731 163.463 C 259.923 165.792,259.412 167.541,259.594 167.349 C 260.040 166.880,262.453 159.955,262.312 159.550 C 262.250 159.373,261.539 161.135,260.731 163.463 M196.262 164.400 C 197.396 165.610,199.061 167.665,199.962 168.966 C 200.863 170.268,201.600 171.203,201.600 171.044 C 201.600 170.336,198.278 166.016,196.337 164.200 L 194.200 162.200 196.262 164.400 M141.600 165.579 C 142.590 166.473,144.210 167.503,145.200 167.870 C 147.421 168.691,148.187 169.321,148.817 170.842 C 149.087 171.493,149.392 171.942,149.494 171.839 C 150.173 171.160,147.724 168.372,145.923 167.775 C 144.857 167.420,143.042 166.416,141.892 165.542 L 139.800 163.954 141.600 165.579 M180.856 165.200 C 180.856 165.530,181.011 166.160,181.200 166.600 C 181.417 167.104,181.544 167.178,181.544 166.800 C 181.544 166.470,181.389 165.840,181.200 165.400 C 180.983 164.896,180.856 164.822,180.856 165.200 M211.700 166.688 C 210.805 168.806,210.190 170.709,210.502 170.400 C 210.828 170.077,212.785 165.051,212.641 164.907 C 212.568 164.835,212.145 165.636,211.700 166.688 M164.841 167.800 C 164.841 168.020,165.722 169.910,166.800 172.000 C 167.878 174.090,168.759 175.620,168.759 175.400 C 168.759 175.180,167.878 173.290,166.800 171.200 C 165.722 169.110,164.841 167.580,164.841 167.800 M181.656 168.000 C 181.656 168.330,181.811 168.960,182.000 169.400 C 182.217 169.904,182.344 169.978,182.344 169.600 C 182.344 169.270,182.189 168.640,182.000 168.200 C 181.783 167.696,181.656 167.622,181.656 168.000 M215.825 171.500 C 214.559 173.240,212.384 176.870,212.890 176.400 C 213.347 175.976,217.569 169.600,217.393 169.600 C 217.291 169.600,216.585 170.455,215.825 171.500 M256.895 171.500 C 255.501 173.635,253.823 175.471,251.189 177.742 C 249.770 178.965,249.690 179.092,250.800 178.353 C 253.387 176.632,258.883 170.350,258.306 169.772 C 258.211 169.678,257.576 170.456,256.895 171.500 M182.456 170.800 C 182.456 171.130,182.611 171.760,182.800 172.200 C 183.017 172.704,183.144 172.778,183.144 172.400 C 183.144 172.070,182.989 171.440,182.800 171.000 C 182.583 170.496,182.456 170.422,182.456 170.800 M209.829 171.829 C 209.681 172.415,209.638 172.972,209.732 173.066 C 209.827 173.160,210.024 172.758,210.171 172.171 C 210.319 171.585,210.362 171.028,210.268 170.934 C 210.173 170.840,209.976 171.242,209.829 171.829 M202.433 173.274 C 202.415 173.425,202.597 174.055,202.838 174.674 C 203.079 175.293,203.432 176.610,203.623 177.600 L 203.969 179.400 203.836 177.600 C 203.725 176.091,202.534 172.421,202.433 173.274 M209.056 174.884 C 208.921 175.388,208.827 176.160,208.846 176.600 C 208.865 177.040,209.045 176.698,209.246 175.840 C 209.636 174.178,209.470 173.340,209.056 174.884 M184.253 176.400 C 184.681 178.086,185.212 179.321,185.420 179.114 C 185.528 179.005,185.253 178.125,184.808 177.158 C 184.363 176.191,184.113 175.850,184.253 176.400 M210.841 180.100 C 210.012 181.915,209.120 183.850,208.858 184.400 C 208.464 185.226,208.409 184.706,208.543 181.400 C 208.653 178.657,208.600 177.903,208.375 179.000 C 207.956 181.038,207.903 186.400,208.302 186.400 C 208.468 186.400,209.035 185.275,209.561 183.900 C 210.087 182.525,211.034 180.365,211.664 179.100 C 212.295 177.835,212.707 176.800,212.580 176.800 C 212.452 176.800,211.670 178.285,210.841 180.100 M152.041 177.400 C 152.041 177.620,152.922 179.510,154.000 181.600 C 155.078 183.690,155.959 185.220,155.959 185.000 C 155.959 184.780,155.078 182.890,154.000 180.800 C 152.922 178.710,152.041 177.180,152.041 177.400 M138.800 179.587 C 138.091 179.805,138.411 179.872,139.898 179.816 C 141.052 179.773,142.117 179.617,142.264 179.469 C 142.622 179.111,140.065 179.198,138.800 179.587 M245.400 181.229 C 241.282 183.464,241.083 183.880,245.110 181.833 C 247.472 180.632,249.772 179.180,249.200 179.250 C 249.090 179.264,247.380 180.154,245.400 181.229 M255.200 179.757 C 255.200 180.064,255.495 180.428,255.857 180.566 C 256.426 180.785,256.440 180.731,255.964 180.157 C 255.467 179.558,255.546 179.519,256.808 179.747 C 257.826 179.931,257.985 179.898,257.400 179.627 C 256.200 179.071,255.200 179.130,255.200 179.757 M185.600 179.753 C 185.600 180.182,186.790 182.400,187.021 182.400 C 187.131 182.400,186.923 181.815,186.559 181.100 C 185.817 179.640,185.600 179.336,185.600 179.753 M135.800 180.400 C 135.296 180.617,135.222 180.744,135.600 180.744 C 135.930 180.744,136.560 180.589,137.000 180.400 C 137.504 180.183,137.578 180.056,137.200 180.056 C 136.870 180.056,136.240 180.211,135.800 180.400 M138.162 181.549 C 129.245 187.395,130.438 192.309,141.813 196.590 C 146.031 198.178,145.827 197.748,141.558 196.055 C 130.092 191.508,129.728 187.188,140.248 180.524 C 140.662 180.261,140.893 180.036,140.762 180.024 C 140.631 180.011,139.461 180.697,138.162 181.549 M204.090 187.467 C 204.023 193.156,203.871 195.185,203.500 195.335 C 203.108 195.493,203.111 195.544,203.513 195.568 C 204.356 195.620,204.424 194.895,204.300 187.187 L 204.181 179.800 204.090 187.467 M216.614 181.035 C 216.241 181.604,216.027 182.161,216.139 182.272 C 216.250 182.383,216.629 181.918,216.981 181.237 C 217.759 179.733,217.544 179.615,216.614 181.035 M259.400 180.400 C 259.840 180.589,260.470 180.744,260.800 180.744 C 261.178 180.744,261.104 180.617,260.600 180.400 C 260.160 180.211,259.530 180.056,259.200 180.056 C 258.822 180.056,258.896 180.183,259.400 180.400 M133.000 181.200 C 132.496 181.417,132.422 181.544,132.800 181.544 C 133.130 181.544,133.760 181.389,134.200 181.200 C 134.704 180.983,134.778 180.856,134.400 180.856 C 134.070 180.856,133.440 181.011,133.000 181.200 M171.241 181.000 C 171.241 181.220,172.303 183.470,173.600 186.000 C 174.897 188.530,175.959 190.420,175.959 190.200 C 175.959 189.980,174.897 187.730,173.600 185.200 C 172.303 182.670,171.241 180.780,171.241 181.000 M256.800 180.937 C 256.800 181.023,257.565 181.598,258.500 182.215 C 259.461 182.849,259.952 183.034,259.629 182.642 C 259.087 181.982,256.800 180.604,256.800 180.937 M263.568 181.628 C 264.760 182.051,265.805 182.328,265.890 182.244 C 266.076 182.057,262.433 180.788,261.829 180.829 C 261.593 180.845,262.376 181.205,263.568 181.628 M127.200 183.623 C 125.990 184.287,124.550 185.314,124.000 185.904 L 123.000 186.977 124.035 186.080 C 124.605 185.586,126.225 184.560,127.635 183.800 C 129.046 183.040,130.020 182.417,129.800 182.416 C 129.580 182.415,128.410 182.958,127.200 183.623 M268.400 183.626 C 269.610 184.292,271.303 185.504,272.162 186.318 C 273.062 187.172,273.463 187.409,273.108 186.877 C 272.379 185.784,270.384 184.241,268.316 183.169 C 265.925 181.930,265.993 182.301,268.400 183.626 M187.877 184.031 C 188.275 184.708,188.856 185.473,189.168 185.731 C 189.480 185.989,189.232 185.435,188.615 184.500 C 187.320 182.537,186.809 182.212,187.877 184.031 M214.981 184.037 C 214.629 184.718,214.412 185.345,214.499 185.432 C 214.586 185.519,214.956 184.962,215.322 184.195 C 216.144 182.470,215.859 182.338,214.981 184.037 M261.239 184.200 C 264.689 188.186,264.373 190.619,260.000 193.725 C 259.061 194.391,259.083 194.391,260.344 193.717 C 264.644 191.422,265.143 187.440,261.536 184.200 L 260.200 183.000 261.239 184.200 M238.000 184.400 C 237.467 184.745,237.467 184.788,238.000 184.788 C 238.330 184.788,238.870 184.613,239.200 184.400 C 239.733 184.055,239.733 184.012,239.200 184.012 C 238.870 184.012,238.330 184.187,238.000 184.400 M213.300 187.888 C 212.405 190.006,211.790 191.909,212.102 191.600 C 212.428 191.277,214.385 186.251,214.241 186.107 C 214.168 186.035,213.745 186.836,213.300 187.888 M192.200 189.052 C 194.590 191.397,199.740 194.793,200.203 194.330 C 200.284 194.249,199.193 193.583,197.779 192.850 C 196.364 192.116,193.900 190.344,192.304 188.910 L 189.400 186.305 192.200 189.052 M230.600 186.800 C 230.096 187.017,230.022 187.144,230.400 187.144 C 230.730 187.144,231.360 186.989,231.800 186.800 C 232.304 186.583,232.378 186.456,232.000 186.456 C 231.670 186.456,231.040 186.611,230.600 186.800 M273.765 193.148 C 273.738 197.064,273.795 197.660,274.021 195.800 C 274.417 192.546,274.451 189.098,274.094 188.548 C 273.932 188.299,273.784 190.369,273.765 193.148 M122.137 191.800 C 122.139 193.560,122.209 194.230,122.293 193.289 C 122.378 192.349,122.377 190.909,122.291 190.089 C 122.205 189.270,122.136 190.040,122.137 191.800 M222.475 189.473 C 221.526 189.809,220.821 190.154,220.907 190.241 C 221.090 190.423,224.800 189.205,224.800 188.962 C 224.800 188.712,224.345 188.812,222.475 189.473 M158.424 190.513 C 158.262 192.609,162.260 196.273,163.432 195.101 C 163.539 194.994,162.940 194.797,162.101 194.662 C 160.745 194.446,160.455 194.182,159.512 192.309 C 158.927 191.149,158.438 190.341,158.424 190.513 M215.682 192.606 L 211.564 194.800 211.772 193.300 L 211.980 191.800 211.545 193.322 C 211.027 195.134,211.320 195.576,212.518 194.795 C 213.003 194.479,215.020 193.367,217.000 192.323 C 218.980 191.279,220.420 190.422,220.200 190.419 C 219.980 190.415,217.947 191.399,215.682 192.606 M166.400 195.620 C 167.390 195.797,168.830 195.932,169.600 195.920 C 170.897 195.901,170.867 195.876,169.200 195.580 C 168.210 195.403,166.770 195.268,166.000 195.280 C 164.703 195.299,164.733 195.324,166.400 195.620 M255.000 196.029 C 254.120 196.452,253.850 196.686,254.400 196.549 C 255.533 196.267,257.612 195.225,257.000 195.246 C 256.780 195.253,255.880 195.606,255.000 196.029 M178.400 195.902 C 178.400 196.192,177.360 196.289,175.300 196.191 L 172.200 196.044 175.200 196.394 C 177.988 196.719,179.389 196.455,178.673 195.740 C 178.523 195.590,178.400 195.663,178.400 195.902 M122.514 197.800 C 122.517 198.900,122.595 199.303,122.687 198.695 C 122.779 198.086,122.777 197.186,122.682 196.695 C 122.587 196.203,122.511 196.700,122.514 197.800 M146.200 198.000 C 146.640 198.189,147.270 198.344,147.600 198.344 C 147.978 198.344,147.904 198.217,147.400 198.000 C 146.960 197.811,146.330 197.656,146.000 197.656 C 145.622 197.656,145.696 197.783,146.200 198.000 M249.000 198.000 C 248.496 198.217,248.422 198.344,248.800 198.344 C 249.130 198.344,249.760 198.189,250.200 198.000 C 250.704 197.783,250.778 197.656,250.400 197.656 C 250.070 197.656,249.440 197.811,249.000 198.000 M149.200 198.800 C 150.568 199.238,151.619 199.238,150.600 198.800 C 150.160 198.611,149.440 198.462,149.000 198.468 C 148.357 198.477,148.396 198.543,149.200 198.800 M245.800 198.800 C 244.781 199.238,245.832 199.238,247.200 198.800 C 248.004 198.543,248.043 198.477,247.400 198.468 C 246.960 198.462,246.240 198.611,245.800 198.800 M152.800 199.600 C 153.350 199.776,154.160 199.920,154.600 199.920 C 155.233 199.920,155.192 199.854,154.400 199.600 C 153.850 199.424,153.040 199.280,152.600 199.280 C 151.967 199.280,152.008 199.346,152.800 199.600 M242.000 199.600 C 241.208 199.854,241.167 199.920,241.800 199.920 C 242.240 199.920,243.050 199.776,243.600 199.600 C 244.392 199.346,244.433 199.280,243.800 199.280 C 243.360 199.280,242.550 199.424,242.000 199.600 M273.033 201.233 C 272.883 202.366,272.841 203.374,272.939 203.472 C 273.037 203.571,273.245 202.728,273.400 201.600 C 273.555 200.472,273.598 199.464,273.494 199.361 C 273.391 199.258,273.184 200.100,273.033 201.233 M156.600 200.400 C 157.260 200.568,158.250 200.705,158.800 200.705 C 159.692 200.705,159.670 200.672,158.600 200.400 C 157.940 200.232,156.950 200.095,156.400 200.095 C 155.508 200.095,155.530 200.128,156.600 200.400 M237.600 200.400 L 236.600 200.720 237.600 200.720 C 238.150 200.720,239.050 200.576,239.600 200.400 L 240.600 200.080 239.600 200.080 C 239.050 200.080,238.150 200.224,237.600 200.400 M161.400 201.200 C 162.060 201.368,163.230 201.506,164.000 201.507 L 165.400 201.508 163.800 201.177 C 161.645 200.731,159.634 200.751,161.400 201.200 M232.400 201.200 C 231.050 201.484,231.043 201.495,232.200 201.500 C 232.860 201.503,233.940 201.368,234.600 201.200 C 236.260 200.778,234.407 200.778,232.400 201.200 M167.800 202.002 C 169.417 202.358,172.274 202.527,171.967 202.249 C 171.875 202.166,170.540 201.998,169.000 201.874 C 166.848 201.702,166.570 201.731,167.800 202.002 M225.600 202.000 L 223.800 202.280 225.400 202.317 C 226.280 202.337,227.720 202.205,228.600 202.023 L 230.200 201.692 228.800 201.706 C 228.030 201.714,226.590 201.846,225.600 202.000 M175.600 202.799 C 177.862 203.130,183.464 203.317,183.167 203.051 C 183.075 202.970,180.840 202.807,178.200 202.690 C 175.023 202.550,174.144 202.586,175.600 202.799 M216.000 202.800 L 213.000 203.056 215.600 203.088 C 217.030 203.106,219.190 202.984,220.400 202.817 C 223.304 202.415,220.630 202.405,216.000 202.800 M123.228 203.633 C 123.244 204.165,123.419 204.960,123.619 205.400 C 123.871 205.958,123.907 205.715,123.738 204.600 C 123.455 202.743,123.187 202.236,123.228 203.633 M191.925 203.499 C 195.514 203.566,201.274 203.566,204.725 203.499 C 208.176 203.433,205.240 203.378,198.200 203.378 C 191.160 203.379,188.336 203.433,191.925 203.499 M272.250 205.650 C 272.109 206.353,272.069 207.002,272.159 207.092 C 272.250 207.183,272.448 206.691,272.600 206.000 C 272.752 205.309,272.793 204.659,272.691 204.558 C 272.589 204.456,272.391 204.947,272.250 205.650 M124.068 207.400 C 124.062 207.840,124.211 208.560,124.400 209.000 C 124.838 210.019,124.838 208.968,124.400 207.600 C 124.143 206.796,124.077 206.757,124.068 207.400 M258.600 208.022 C 257.720 208.438,257.270 208.777,257.600 208.775 C 257.930 208.773,258.650 208.514,259.200 208.200 C 260.863 207.249,261.333 207.427,261.051 208.900 C 260.873 209.824,260.915 210.027,261.194 209.600 C 262.570 207.502,261.314 206.738,258.600 208.022 M271.429 209.029 C 271.281 209.615,271.238 210.172,271.332 210.266 C 271.427 210.360,271.624 209.958,271.771 209.371 C 271.919 208.785,271.962 208.228,271.868 208.134 C 271.773 208.040,271.576 208.442,271.429 209.029 M252.400 210.000 C 251.596 210.257,251.557 210.323,252.200 210.332 C 252.640 210.338,253.360 210.189,253.800 210.000 C 254.819 209.562,253.768 209.562,252.400 210.000 M124.856 210.400 C 124.856 210.730,125.011 211.360,125.200 211.800 C 125.417 212.304,125.544 212.378,125.544 212.000 C 125.544 211.670,125.389 211.040,125.200 210.600 C 124.983 210.096,124.856 210.022,124.856 210.400 M249.000 210.800 C 247.911 211.077,247.893 211.107,248.800 211.125 C 249.350 211.135,250.160 210.989,250.600 210.800 C 251.586 210.376,250.666 210.376,249.000 210.800 M240.800 212.400 C 239.443 212.686,239.437 212.695,240.600 212.707 C 241.260 212.715,242.250 212.576,242.800 212.400 C 244.112 211.980,242.796 211.980,240.800 212.400 M234.900 213.476 C 235.285 213.576,235.915 213.576,236.300 213.476 C 236.685 213.375,236.370 213.293,235.600 213.293 C 234.830 213.293,234.515 213.375,234.900 213.476 M229.600 214.000 C 227.963 214.254,227.927 214.283,229.200 214.310 C 229.970 214.327,231.410 214.197,232.400 214.020 C 234.797 213.594,232.328 213.576,229.600 214.000 M222.400 214.800 C 220.784 215.051,220.743 215.082,222.000 215.100 C 222.770 215.112,224.390 214.984,225.600 214.817 C 227.771 214.517,227.776 214.513,226.000 214.516 C 225.010 214.518,223.390 214.646,222.400 214.800 M213.200 215.600 L 211.000 215.870 213.000 215.891 C 214.100 215.903,216.080 215.779,217.400 215.615 L 219.800 215.318 217.600 215.324 C 216.390 215.328,214.410 215.452,213.200 215.600 M258.272 216.619 C 257.332 218.589,257.464 218.924,258.447 217.062 C 258.893 216.216,259.187 215.454,259.101 215.367 C 259.014 215.281,258.641 215.844,258.272 216.619 M200.800 216.400 L 197.400 216.651 200.200 216.686 C 201.740 216.705,204.530 216.586,206.400 216.422 L 209.800 216.124 207.000 216.136 C 205.460 216.143,202.670 216.262,200.800 216.400 M268.361 218.490 C 267.089 221.840,267.074 221.891,267.568 221.200 C 268.143 220.395,269.669 216.336,269.471 216.138 C 269.385 216.051,268.885 217.110,268.361 218.490 M247.600 216.558 C 247.600 216.645,248.320 216.785,249.200 216.869 C 250.080 216.952,250.800 216.881,250.800 216.711 C 250.800 216.540,250.080 216.400,249.200 216.400 C 248.320 216.400,247.600 216.471,247.600 216.558 M193.029 217.154 C 192.740 217.620,195.946 218.413,197.877 218.352 C 199.283 218.309,199.235 218.275,197.241 217.913 C 195.736 217.639,195.251 217.413,195.641 217.166 C 196.024 216.923,195.736 216.810,194.724 216.806 C 193.912 216.803,193.149 216.959,193.029 217.154 M243.600 217.200 C 242.538 217.424,242.441 217.502,243.200 217.524 C 243.750 217.541,244.920 217.405,245.800 217.223 C 247.134 216.947,247.200 216.893,246.200 216.899 C 245.540 216.902,244.370 217.038,243.600 217.200 M127.230 217.674 C 127.182 218.110,129.297 222.836,129.464 222.669 C 129.548 222.586,129.085 221.366,128.437 219.959 C 127.789 218.551,127.246 217.523,127.230 217.674 M236.800 218.000 C 235.175 218.253,235.136 218.282,236.400 218.305 C 237.170 218.319,238.700 218.190,239.800 218.018 C 241.692 217.724,241.713 217.707,240.200 217.714 C 239.320 217.717,237.790 217.846,236.800 218.000 M201.900 218.693 C 202.835 218.777,204.365 218.777,205.300 218.693 C 206.235 218.609,205.470 218.540,203.600 218.540 C 201.730 218.540,200.965 218.609,201.900 218.693 M223.600 218.800 L 218.200 219.036 223.000 219.078 C 225.640 219.101,229.330 218.986,231.200 218.822 L 234.600 218.524 231.800 218.544 C 230.260 218.555,226.570 218.670,223.600 218.800 M209.700 219.097 C 211.185 219.174,213.615 219.174,215.100 219.097 C 216.585 219.020,215.370 218.957,212.400 218.957 C 209.430 218.957,208.215 219.020,209.700 219.097 M255.909 221.709 C 255.095 223.278,254.501 224.634,254.589 224.722 C 254.677 224.810,255.402 223.585,256.200 222.000 C 256.998 220.415,257.592 219.059,257.520 218.987 C 257.448 218.915,256.723 220.140,255.909 221.709 M246.389 225.100 C 245.681 226.365,244.284 228.554,243.285 229.965 C 242.285 231.375,241.678 232.399,241.936 232.240 C 242.846 231.677,248.432 222.800,247.876 222.800 C 247.766 222.800,247.097 223.835,246.389 225.100 M265.478 225.005 C 265.112 225.772,264.895 226.400,264.996 226.400 C 265.270 226.400,266.484 223.951,266.301 223.768 C 266.214 223.681,265.844 224.238,265.478 225.005 M253.552 226.100 C 253.290 226.595,252.815 227.450,252.496 228.000 C 251.939 228.959,251.943 228.967,252.588 228.200 C 253.386 227.252,254.505 225.200,254.224 225.200 C 254.116 225.200,253.814 225.605,253.552 226.100 M131.800 227.600 C 132.141 228.260,132.511 228.800,132.621 228.800 C 132.731 228.800,132.541 228.260,132.200 227.600 C 131.859 226.940,131.489 226.400,131.379 226.400 C 131.269 226.400,131.459 226.940,131.800 227.600 M263.189 229.100 C 262.481 230.365,261.084 232.554,260.085 233.965 C 259.085 235.375,258.478 236.399,258.736 236.240 C 259.646 235.677,265.232 226.800,264.676 226.800 C 264.566 226.800,263.897 227.835,263.189 229.100 M133.655 230.812 C 136.038 235.052,141.110 241.139,146.643 246.400 C 148.147 247.830,147.308 246.840,144.779 244.200 C 140.179 239.398,136.844 235.245,134.421 231.300 C 132.906 228.834,132.340 228.473,133.655 230.812 M250.515 230.900 C 248.691 233.284,247.880 234.511,248.295 234.259 C 248.815 233.944,251.362 230.400,251.068 230.400 C 250.975 230.400,250.726 230.625,250.515 230.900 M238.965 235.700 C 234.135 241.725,225.778 249.414,220.145 253.018 C 217.341 254.812,217.682 256.126,220.600 254.773 C 221.190 254.500,221.032 254.465,220.000 254.643 C 218.278 254.940,218.310 254.905,223.400 251.085 C 229.714 246.345,243.118 232.800,241.494 232.800 C 241.382 232.800,240.244 234.105,238.965 235.700 M242.400 240.368 C 238.814 244.005,235.891 246.565,233.700 247.988 C 230.319 250.183,229.498 250.887,231.565 249.818 C 233.763 248.682,239.059 244.446,242.266 241.261 C 244.957 238.587,248.405 234.685,247.934 234.845 C 247.860 234.871,245.370 237.356,242.400 240.368 M255.488 239.925 C 252.155 243.875,247.752 248.064,243.842 251.007 C 240.804 253.294,239.640 254.459,242.100 252.752 C 246.456 249.728,255.147 241.445,257.647 237.933 C 259.108 235.882,258.169 236.748,255.488 239.925 M150.200 249.563 C 151.026 250.517,153.200 252.192,153.200 251.875 C 153.200 251.777,152.345 251.009,151.300 250.168 C 150.255 249.328,149.760 249.055,150.200 249.563 M227.600 251.600 C 226.390 252.239,225.541 252.771,225.713 252.781 C 226.138 252.807,230.000 250.836,230.000 250.593 C 230.000 250.326,230.055 250.303,227.600 251.600 M154.714 253.076 C 156.005 254.181,159.200 256.171,159.200 255.871 C 159.200 255.786,157.895 254.870,156.300 253.835 C 154.705 252.799,153.991 252.458,154.714 253.076 M235.499 256.560 C 232.553 258.235,231.999 258.801,234.600 257.480 C 236.444 256.543,238.470 255.207,238.000 255.239 C 237.890 255.246,236.765 255.841,235.499 256.560 M159.600 256.179 C 159.600 256.289,160.140 256.659,160.800 257.000 C 161.460 257.341,162.000 257.531,162.000 257.421 C 162.000 257.311,161.460 256.941,160.800 256.600 C 160.140 256.259,159.600 256.069,159.600 256.179 M162.400 257.798 C 162.400 258.067,166.449 260.084,166.629 259.905 C 166.711 259.823,165.793 259.273,164.589 258.682 C 163.385 258.092,162.400 257.694,162.400 257.798 M168.400 260.800 C 169.170 261.222,169.980 261.566,170.200 261.566 C 170.420 261.566,169.970 261.222,169.200 260.800 C 168.430 260.378,167.620 260.034,167.400 260.034 C 167.180 260.034,167.630 260.378,168.400 260.800 M178.600 264.400 C 179.040 264.589,179.760 264.738,180.200 264.732 C 180.843 264.723,180.804 264.657,180.000 264.400 C 178.632 263.962,177.581 263.962,178.600 264.400 M216.400 264.400 C 215.576 264.664,215.541 264.726,216.200 264.754 C 216.640 264.773,217.270 264.613,217.600 264.400 C 218.301 263.947,217.814 263.947,216.400 264.400 M182.000 265.200 C 182.550 265.376,183.450 265.517,184.000 265.513 C 184.898 265.506,184.878 265.474,183.800 265.200 C 182.108 264.769,180.656 264.769,182.000 265.200 M212.600 265.200 C 211.522 265.474,211.502 265.506,212.400 265.513 C 212.950 265.517,213.850 265.376,214.400 265.200 C 215.744 264.769,214.292 264.769,212.600 265.200 M186.200 265.985 C 187.422 266.311,190.670 266.520,190.367 266.253 C 190.275 266.172,189.030 266.007,187.600 265.885 C 185.962 265.746,185.444 265.782,186.200 265.985 M207.600 266.000 L 205.800 266.280 207.400 266.293 C 208.280 266.300,209.540 266.168,210.200 266.000 C 211.800 265.593,210.219 265.593,207.600 266.000 M194.480 266.698 C 196.394 266.771,199.634 266.771,201.680 266.698 C 203.726 266.626,202.160 266.566,198.200 266.565 C 194.240 266.565,192.566 266.624,194.480 266.698 " stroke="none" fill="#b471fc" fill-rule="evenodd"></path></g></svg>